<svg width="512" height="512" viewBox="0 0 512 512" fill="none" xmlns="http://www.w3.org/2000/svg">
<path d="M286.6 4.9002C192.2 32.6002 211.2 98.5002 200.6 171.4C187.4 262.5 130.5 215.8 65.1 264.9C-48 349.9 34.2 537.5 174.6 509C249.2 493.9 264.4 438.9 294.8 380.2C334.1 304.2 399.4 324.9 457.9 275.3C576.5 174.8 420.4 -34.4998 286.6 4.9002Z" fill="#C6807F"/>
<path opacity="0.1" d="M467.2 263.4H321.2V263.3C323.2 263 325.1 262.1 326.8 260.5L373.4 213.9C377.3 210 377.3 203.7 373.4 199.8L326.8 153C325.2 151.4 323.2 150.4 321.2 150.2V122.7C321.2 117.2 316.7 112.7 311.2 112.7H44.8C39.3 112.7 34.8 117.2 34.8 122.7V286.6C34.8 292.1 39.3 296.6 44.8 296.6H190.8V296.7C188.8 297 186.9 297.9 185.2 299.5L138.6 346.1C134.7 350 134.7 356.3 138.6 360.2L185.2 406.8C186.8 408.4 188.8 409.4 190.8 409.6V437.1C190.8 442.6 195.3 447.1 200.8 447.1H467.3C472.8 447.1 477.3 442.6 477.3 437.1V273.4C477.2 267.9 472.8 263.4 467.2 263.4Z" fill="#FFDAD9"/>
<path d="M477.2 249.4V413.3C477.2 418.8 472.7 423.3 467.2 423.3H200.8C195.3 423.3 190.8 418.8 190.8 413.3V249.4C190.8 243.9 195.3 239.4 200.8 239.4H467.3C472.8 239.4 477.2 243.9 477.2 249.4Z" fill="white"/>
<path d="M477.2 249.4L339.6 344.4C336.2 346.8 331.7 346.8 328.2 344.4L258.2 296.1L190.6 249.4C190.6 243.9 195.1 239.4 200.6 239.4H467.1C469.9 239.4 472.4 240.5 474.2 242.3C476 244.1 477.2 246.6 477.2 249.4Z" fill="#DC211D"/>
<path d="M393.8 381.7C389.4 381.7 386.9 379.9 385.2 378.8C384 378 383.7 377.7 382.4 377.7C381.1 377.7 380.8 378 379.6 378.8C378 380 375.5 381.7 371 381.7C366.6 381.7 364.1 379.9 362.5 378.8C361.3 378 361 377.7 359.7 377.7C358.5 377.7 358.1 378 356.9 378.8C355.3 380 352.8 381.7 348.4 381.7C345.6 381.7 343.4 379.5 343.4 376.7C343.4 373.9 345.6 371.7 348.4 371.7C349.6 371.7 350 371.4 351.2 370.6C352.8 369.4 355.3 367.7 359.7 367.7C364.1 367.7 366.6 369.5 368.2 370.6C369.4 371.4 369.7 371.7 371 371.7C372.2 371.7 372.6 371.4 373.8 370.6C375.4 369.4 377.9 367.7 382.4 367.7C386.8 367.7 389.3 369.5 391 370.6C392.2 371.4 392.5 371.7 393.8 371.7C396.6 371.7 398.8 373.9 398.8 376.7C398.8 379.5 396.5 381.7 393.8 381.7Z" fill="#DC211D"/>
<path d="M393.8 399.7C389.4 399.7 386.9 397.9 385.2 396.8C384 396 383.7 395.7 382.4 395.7C381.1 395.7 380.8 396 379.6 396.8C378 398 375.5 399.7 371 399.7C366.6 399.7 364.1 397.9 362.5 396.8C361.3 396 361 395.7 359.7 395.7C358.5 395.7 358.1 396 356.9 396.8C355.3 398 352.8 399.7 348.4 399.7C345.6 399.7 343.4 397.5 343.4 394.7C343.4 391.9 345.6 389.7 348.4 389.7C349.6 389.7 350 389.4 351.2 388.6C352.8 387.4 355.3 385.7 359.7 385.7C364.1 385.7 366.6 387.5 368.2 388.6C369.4 389.4 369.7 389.7 371 389.7C372.2 389.7 372.6 389.4 373.8 388.6C375.4 387.4 377.9 385.7 382.4 385.7C386.8 385.7 389.3 387.5 391 388.6C392.2 389.4 392.5 389.7 393.8 389.7C396.6 389.7 398.8 391.9 398.8 394.7C398.8 397.5 396.5 399.7 393.8 399.7Z" fill="#DC211D"/>
<path d="M444.5 401.101H415C411.7 401.101 409 398.401 409 395.101V365.601C409 362.301 411.7 359.601 415 359.601H444.5C447.8 359.601 450.5 362.301 450.5 365.601V395.101C450.5 398.401 447.8 401.101 444.5 401.101Z" fill="#FFDAD9"/>
<path d="M138.5 336.3L185.1 382.9C191.4 389.2 202.2 384.7 202.2 375.8V362.3H259.7C265.2 362.3 269.7 357.8 269.7 352.3V306.1C269.7 300.6 265.2 296.1 259.7 296.1H202.2V282.6C202.2 273.7 191.4 269.2 185.1 275.5L138.5 322.1C134.6 326.1 134.6 332.4 138.5 336.3Z" fill="white"/>
<path d="M321.2 98.7002V262.8C321.1 268.2 316.7 272.6 311.2 272.6H44.8C39.3 272.6 34.8 268.1 34.8 262.6V98.7002C34.8 93.2002 39.3 88.7002 44.8 88.7002H311.3C316.8 88.7002 321.2 93.1002 321.2 98.7002Z" fill="white"/>
<path d="M34.8 98.7002L172.4 193.7C175.8 196.1 180.3 196.1 183.8 193.7L321.4 98.7002C321.4 93.2002 316.9 88.7002 311.4 88.7002H44.8C39.2 88.7002 34.8 93.1002 34.8 98.7002Z" fill="#DC211D"/>
<path d="M82.5 248.9C95.0921 248.9 105.3 238.692 105.3 226.1C105.3 213.508 95.0921 203.3 82.5 203.3C69.9079 203.3 59.7 213.508 59.7 226.1C59.7 238.692 69.9079 248.9 82.5 248.9Z" fill="#FFD8D7"/>
<path d="M132.8 231C128.4 231 125.9 229.2 124.2 228.1C123 227.3 122.7 227 121.4 227C120.1 227 119.8 227.3 118.6 228.1C117 229.3 114.5 231 110 231C105.6 231 103.1 229.2 101.5 228.1C100.3 227.3 100 227 98.7 227C97.5 227 97.1 227.3 95.9 228.1C94.3 229.3 91.8 231 87.3 231C84.5 231 82.3 228.8 82.3 226C82.3 223.2 84.5 221 87.3 221C88.5 221 88.9 220.7 90.1 219.9C91.7 218.7 94.2 217 98.7 217C103.1 217 105.6 218.8 107.2 219.9C108.4 220.7 108.7 221 110 221C111.2 221 111.6 220.7 112.8 219.9C114.4 218.7 116.9 217 121.4 217C125.8 217 128.3 218.8 130 219.9C131.2 220.7 131.5 221 132.8 221C135.6 221 137.8 223.2 137.8 226C137.8 228.8 135.5 231 132.8 231Z" fill="#DC211D"/>
<path d="M132.8 249C128.4 249 125.9 247.2 124.2 246.1C123 245.3 122.7 245 121.4 245C120.1 245 119.8 245.3 118.6 246.1C117 247.3 114.5 249 110 249C105.6 249 103.1 247.2 101.5 246.1C100.3 245.3 100 245 98.7 245C97.5 245 97.1 245.3 95.9 246.1C94.3 247.3 91.8 249 87.3 249C84.5 249 82.3 246.8 82.3 244C82.3 241.2 84.5 239 87.3 239C88.5 239 88.9 238.7 90.1 237.9C91.7 236.7 94.2 235 98.7 235C103.1 235 105.6 236.8 107.2 237.9C108.4 238.7 108.7 239 110 239C111.2 239 111.6 238.7 112.8 237.9C114.4 236.7 116.9 235 121.4 235C125.8 235 128.3 236.8 130 237.9C131.2 238.7 131.5 239 132.8 239C135.6 239 137.8 241.2 137.8 244C137.8 246.8 135.5 249 132.8 249Z" fill="#DC211D"/>
<path d="M373.5 175.7L326.8 129C320.5 122.7 309.7 127.2 309.7 136.1V149.6H252.2C246.7 149.6 242.2 154.1 242.2 159.6V205.8C242.2 211.3 246.7 215.8 252.2 215.8H309.7V229.3C309.7 238.2 320.5 242.7 326.8 236.4L373.4 189.8C377.4 185.9 377.4 179.6 373.5 175.7Z" fill="white"/>
<path d="M343.4 480.3C340.6 480.3 338.4 478.1 338.4 475.3C338.4 472 335.7 469.3 332.4 469.3C329.6 469.3 327.4 467.1 327.4 464.3C327.4 461.5 329.6 459.3 332.4 459.3C335.7 459.3 338.4 456.6 338.4 453.3C338.4 450.5 340.6 448.3 343.4 448.3C346.2 448.3 348.4 450.5 348.4 453.3C348.4 456.6 351.1 459.3 354.4 459.3C357.2 459.3 359.4 461.5 359.4 464.3C359.4 467.1 357.2 469.3 354.4 469.3C351.1 469.3 348.4 472 348.4 475.3C348.4 478.1 346.2 480.3 343.4 480.3Z" fill="#DC211D"/>
<path d="M178 63.7001C176.7 63.7001 175.4 63.2001 174.5 62.2001L163.5 51.2001C161.5 49.2001 161.5 46.1001 163.5 44.1001L174.5 33.1001C176.5 31.1001 179.6 31.1001 181.6 33.1001L192.6 44.1001C194.6 46.1001 194.6 49.2001 192.6 51.2001L181.6 62.2001C180.6 63.2001 179.3 63.7001 178 63.7001ZM174.1 47.7001L178 51.6001L181.9 47.7001L178 43.8001L174.1 47.7001Z" fill="#DC211D"/>
<path d="M409 144.6C407.7 144.6 406.4 144.1 405.5 143.1L394.5 132.1C392.5 130.1 392.5 127 394.5 125L405.5 114C407.5 112 410.6 112 412.6 114L423.6 125C425.6 127 425.6 130.1 423.6 132.1L412.6 143.1C411.6 144.2 410.3 144.6 409 144.6ZM405.1 128.6L409 132.5L412.9 128.6L409 124.7L405.1 128.6Z" fill="#DC211D"/>
<path d="M124.1 430.6C122.8 430.6 121.5 430.1 120.6 429.1L109.6 418.1C107.6 416.1 107.6 413 109.6 411L120.6 400C122.6 398 125.7 398 127.7 400L138.7 411C140.7 413 140.7 416.1 138.7 418.1L127.7 429.1C126.7 430.1 125.4 430.6 124.1 430.6ZM120.2 414.6L124.1 418.5L128 414.6L124.1 410.7L120.2 414.6Z" fill="#DC211D"/>
<path d="M88 386.5C85.2 386.5 83 384.3 83 381.5C83 378.2 80.3 375.5 77 375.5C74.2 375.5 72 373.3 72 370.5C72 367.7 74.2 365.5 77 365.5C80.3 365.5 83 362.8 83 359.5C83 356.7 85.2 354.5 88 354.5C90.8 354.5 93 356.7 93 359.5C93 362.8 95.7 365.5 99 365.5C101.8 365.5 104 367.7 104 370.5C104 373.3 101.8 375.5 99 375.5C95.7 375.5 93 378.2 93 381.5C93 384.3 90.8 386.5 88 386.5Z" fill="#DC211D"/>
<path d="M44.8 277.6H176L135 318.7C129.2 324.5 129.2 334.1 135 339.9L181.6 386.5C182.8 387.7 184.2 388.7 185.7 389.4V413.3C185.7 421.6 192.4 428.3 200.7 428.3H467.2C475.5 428.3 482.2 421.6 482.2 413.3V358.8C482.2 356 480 353.8 477.2 353.8C474.4 353.8 472.2 356 472.2 358.8V413.3C472.2 416.1 470 418.3 467.2 418.3H200.8C198 418.3 195.8 416.1 195.8 413.3V390.4C196.5 390.2 197.3 390 198 389.7C203.7 387.3 207.3 382 207.3 375.8V367.3H259.8C268.1 367.3 274.8 360.6 274.8 352.3V306.1C274.8 297.8 268.1 291.1 259.8 291.1H207.3V282.6C207.3 280.8 207 279.2 206.5 277.6H238.3C241.1 277.6 243.3 275.4 243.3 272.6C243.3 269.8 241.1 267.6 238.3 267.6H44.8C42 267.6 39.8 265.4 39.8 262.6V98.7002C39.8 95.9002 42 93.7002 44.8 93.7002H311.3C314.1 93.7002 316.3 95.9002 316.3 98.7002V121.5C315.6 121.7 314.8 121.9 314.1 122.2C308.4 124.6 304.8 129.9 304.8 136.1V144.6H252.3C244 144.6 237.3 151.3 237.3 159.6V205.8C237.3 214.1 244 220.8 252.3 220.8H304.8V229.3C304.8 235.5 308.3 240.8 314.1 243.2C314.8 243.5 315.6 243.7 316.3 243.9V262.6C316.3 265.4 314.1 267.6 311.3 267.6H271.9C269.1 267.6 266.9 269.8 266.9 272.6C266.9 275.4 269.1 277.6 271.9 277.6H311.3C319.6 277.6 326.3 270.9 326.3 262.6V244.4H467.3C470.1 244.4 472.3 246.6 472.3 249.4V325.2C472.3 328 474.5 330.2 477.3 330.2C480.1 330.2 482.3 328 482.3 325.2V249.4C482.3 241.1 475.6 234.4 467.3 234.4H336L377.1 193.3C382.9 187.5 382.9 177.9 377.1 172.1L330.5 125.5C329.3 124.3 327.9 123.3 326.4 122.6V98.7002C326.4 90.4002 319.7 83.7002 311.4 83.7002H44.8C36.5 83.7002 29.8 90.4002 29.8 98.7002V262.6C29.8 270.9 36.5 277.6 44.8 277.6ZM259.7 301.2C262.5 301.2 264.7 303.4 264.7 306.2V352.4C264.7 355.2 262.5 357.4 259.7 357.4H202.2C199.4 357.4 197.2 359.6 197.2 362.4V375.9C197.2 379 194.8 380.2 194.1 380.5C193.4 380.8 190.8 381.6 188.7 379.4L142.1 332.8C140.2 330.9 140.2 327.7 142.1 325.7L188.7 279.1C190.9 276.9 193.4 277.7 194.1 278C194.8 278.3 197.2 279.5 197.2 282.6V296.1C197.2 298.9 199.4 301.1 202.2 301.1L259.7 301.2ZM369.9 179.2C371.9 181.1 371.9 184.3 369.9 186.3L323.3 232.9C321.1 235.1 318.6 234.3 317.9 234C317.2 233.7 314.8 232.5 314.8 229.4V215.9C314.8 213.1 312.6 210.9 309.8 210.9H252.3C249.5 210.9 247.3 208.7 247.3 205.9V159.7C247.3 156.9 249.5 154.7 252.3 154.7H309.8C312.6 154.7 314.8 152.5 314.8 149.7V136.2C314.8 133.1 317.2 131.9 317.9 131.6C318.6 131.3 321.2 130.5 323.3 132.7L369.9 179.2Z" fill="#DC211D"/>
</svg>
