<?xml version="1.0" encoding="utf-8"?>
<!-- Generator: Adobe Illustrator 24.0.0, SVG Export Plug-In . SVG Version: 6.00 Build 0)  -->
<svg version="1.1" id="Capa_1" xmlns="http://www.w3.org/2000/svg" xmlns:xlink="http://www.w3.org/1999/xlink" x="0px" y="0px"
	 viewBox="0 0 662.2 150.9" style="enable-background:new 0 0 662.2 150.9;" xml:space="preserve">
<style type="text/css">
	.st0{fill:#FFFFFF;}
	.st1{fill:#FFFFFF;stroke:#FFFFFF;stroke-width:0.9143;stroke-miterlimit:10;}
	.st2{fill:#48A6BC;}
	.st3{fill:url(#SVGID_1_);}
	.st4{fill:url(#SVGID_2_);}
	.st5{fill:url(#SVGID_3_);}
	.st6{fill:url(#SVGID_4_);}
	.st7{fill:url(#SVGID_5_);}
	.st8{fill:url(#SVGID_6_);}
	.st9{fill:url(#SVGID_7_);}
	.st10{fill:url(#SVGID_8_);}
	.st11{fill:url(#SVGID_9_);}
	.st12{fill:url(#SVGID_10_);}
	.st13{fill:url(#SVGID_11_);}
	.st14{fill:url(#SVGID_12_);}
</style>
<g>
	<g>
		<path class="st0" d="M646,49.3v-3.1h1.4c0.3,0,0.5,0,0.6,0.1c0.1,0.1,0.3,0.2,0.3,0.3c0.1,0.1,0.1,0.3,0.1,0.5
			c0,0.2-0.1,0.4-0.2,0.6c-0.1,0.2-0.4,0.2-0.7,0.3c0.1,0.1,0.2,0.1,0.2,0.2c0.1,0.1,0.2,0.2,0.3,0.4l0.5,0.8h-0.5l-0.4-0.6
			c-0.1-0.2-0.2-0.3-0.3-0.4c-0.1-0.1-0.1-0.2-0.2-0.2c-0.1,0-0.1-0.1-0.2-0.1c0,0-0.1,0-0.2,0h-0.5v1.4H646z M646.4,47.6h0.9
			c0.2,0,0.3,0,0.4-0.1c0.1,0,0.2-0.1,0.2-0.2c0.1-0.1,0.1-0.2,0.1-0.3c0-0.1-0.1-0.3-0.2-0.4c-0.1-0.1-0.3-0.1-0.5-0.1h-1V47.6z"/>
	</g>
	<path class="st0" d="M647.2,50.6c-1.5,0-2.7-1.2-2.7-2.7c0-1.5,1.2-2.7,2.7-2.7c1.5,0,2.8,1.2,2.8,2.7
		C650,49.3,648.7,50.6,647.2,50.6z M647.2,45.3c-1.4,0-2.5,1.1-2.5,2.5c0,1.4,1.1,2.5,2.5,2.5c1.4,0,2.5-1.1,2.5-2.5
		C649.7,46.4,648.6,45.3,647.2,45.3z"/>
</g>
<g>
	<g>
		<path class="st1" d="M254.3,46c0,0-0.3,5.7-7.8,5.7c-5.5,0-18.8,0-18.8,0V77h-7.4V51.7h-26.6V46h26.6h7.4H254.3z"/>
		<path class="st1" d="M260.7,46h57c0,0-0.1,5.6-7.7,5.6c-7.2,0-41.9,0-41.9,0v7H307v5.7h-38.9v7c0,0,36,0,41.8,0
			c7.6,0,7.8,5.6,7.8,5.6h-57V46z"/>
		<path class="st1" d="M521.5,46h56.9c0,0-0.1,5.6-7.7,5.6c-7.2,0-41.9,0-41.9,0v7h38.9v5.7h-38.9v7c0,0,36,0,41.8,0
			c7.6,0,7.8,5.6,7.8,5.6h-56.9V46z"/>
		<path class="st1" d="M322.1,61.5c0-2.1,0.5-4.1,1.6-6c1.1-1.9,2.5-3.5,4.4-4.9c1.8-1.4,4-2.5,6.5-3.3c2.5-0.8,5.1-1.2,7.9-1.2
			h36.7c0,0-0.3,5.6-9.4,5.6c-8.1,0-27.2,0-27.2,0c-1.8,0-3.5,0.3-5,0.8c-1.6,0.5-2.9,1.2-4.1,2.1c-1.2,0.9-2.1,1.9-2.8,3.1
			c-0.7,1.2-1,2.5-1,3.8c0,1.4,0.3,2.6,1,3.8c0.7,1.2,1.6,2.2,2.8,3.1c1.2,0.9,2.5,1.6,4.1,2.1c1.6,0.5,3.2,0.8,5,0.8
			c0,0,18,0,27.2,0c9.3,0,9.4,5.6,9.4,5.6h-36.7c-2.8,0-5.4-0.4-7.9-1.2c-2.5-0.8-4.6-1.9-6.5-3.3c-1.8-1.4-3.3-3-4.4-4.9
			C322.7,65.7,322.1,63.6,322.1,61.5z"/>
		<path class="st1" d="M440.8,46h7.4V77h-7.4V64.3H395V77h-7.4V46h7.4v12.6h45.9V46z"/>
		<path class="st1" d="M464.1,71.4c0,0,33.8,0,40.5,0c7.8,0,9.1,5.6,9.1,5.6h-57V46h7.4V71.4z"/>
		<path class="st1" d="M627.7,46c2.8,0,5.4,0.4,7.9,1.2c2.5,0.8,4.6,1.9,6.5,3.3c1.8,1.4,3.3,3,4.3,4.9c1.1,1.9,1.6,3.9,1.6,6
			c0,2.1-0.5,4.1-1.6,6c-1.1,1.9-2.5,3.5-4.3,4.9c-1.8,1.4-4,2.5-6.5,3.3c-2.5,0.8-5.1,1.2-7.9,1.2h-40.4V46H627.7z M627.7,71.4
			c1.8,0,3.5-0.3,5-0.8c1.6-0.5,2.9-1.2,4.1-2.1c1.2-0.9,2.1-1.9,2.8-3.1c0.7-1.2,1-2.5,1-3.8c0-1.4-0.3-2.6-1-3.8
			c-0.7-1.2-1.6-2.2-2.8-3.1c-1.2-0.9-2.5-1.6-4.1-2.1c-1.6-0.5-3.2-0.8-5-0.8h-33v19.7H627.7z"/>
		<g>
			<path class="st0" d="M194,93.6c0.1,0,0.3,0,0.4,0c0.2,0,0.3,0,0.5,0c0.2,0,0.3,0,0.4,0c0.1,0,0.2,0.1,0.3,0.1
				c0.1,0.1,0.2,0.2,0.2,0.3c0,0.1,0,0.3,0,0.4v1.6v5v1.4c0,0.1,0,0.2,0,0.4c0,0.1,0,0.2,0.1,0.3c0.1,0.1,0.2,0.1,0.3,0.2
				c0.1,0,0.2,0,0.4,0c0.1,0,0.3,0,0.4,0h1.4h4.9h1.5c0.1,0,0.3,0,0.4,0c0.1,0,0.3,0,0.4,0c0.2,0,0.4,0.1,0.5,0.2c0,0,0,0.1,0.1,0.2
				c0,0.1,0,0.1,0,0.2c0,0.1,0,0.2,0,0.2c0,0.1,0,0.1-0.1,0.2c0,0.1-0.1,0.1-0.2,0.2c-0.1,0-0.2,0.1-0.4,0.1c-0.2,0-0.3,0-0.5,0
				h-1.8h-6.9h-1.8c-0.3,0-0.5,0-0.7,0c-0.2,0-0.3-0.1-0.4-0.1c-0.1-0.1-0.1-0.1-0.1-0.2c0-0.1,0-0.2,0-0.3v-1.1v-4.2v-3.4v-1
				c0-0.1,0-0.2,0-0.3c0-0.1,0-0.2,0.1-0.2c0.1-0.1,0.2-0.1,0.4-0.2c0,0,0.1,0,0.1,0C194,93.6,194,93.6,194,93.6z"/>
			<path class="st0" d="M214.7,93.6h9h2.4c0.2,0,0.4,0,0.6,0c0.2,0,0.4,0,0.5,0.1c0.1,0,0.1,0,0.1,0.1c0,0,0.1,0.1,0.1,0.1
				c0,0.1,0.1,0.2,0.1,0.3c0,0.2,0,0.3-0.1,0.4c-0.1,0.1-0.2,0.2-0.5,0.2c-0.2,0-0.5,0-0.8,0h-2.7h-4.6c-0.3,0-0.6,0-1,0
				c-0.4,0-0.7,0-0.9,0.1c-0.2,0.1-0.3,0.2-0.3,0.3c0,0.2,0,0.3,0,0.5v1.6c0,0.1,0,0.2,0,0.4c0,0.2,0,0.3,0,0.4
				c0.1,0.1,0.2,0.2,0.3,0.3c0.1,0,0.2,0,0.4,0.1h0.3c0.1,0,0.1,0,0.2,0c0.1,0,0.2,0,0.3,0h0.9h5.4c0.2,0,0.3,0,0.6,0
				c0.2,0,0.4,0,0.6,0c0.2,0,0.4,0,0.6,0c0.2,0,0.3,0,0.4,0.1c0.1,0,0.1,0.1,0.1,0.1c0,0.1,0.1,0.2,0.1,0.2c0,0.1,0,0.2,0,0.3
				c0,0.1,0,0.2-0.1,0.2c0,0.1-0.1,0.2-0.2,0.2c0,0-0.1,0-0.2,0c-0.1,0-0.1,0-0.2,0h-0.2c-0.1,0-0.2,0-0.3,0c-0.1,0-0.2,0-0.3,0h-1
				h-5.8c-0.2,0-0.4,0-0.6,0c-0.2,0-0.4,0-0.6,0c-0.2,0-0.4,0-0.5,0.1c-0.1,0-0.2,0.1-0.3,0.2c0,0.1,0,0.1,0,0.2c0,0.1,0,0.2,0,0.2
				v0.9v1.5c0,0.1,0,0.3,0,0.4c0,0.1,0.1,0.2,0.2,0.2c0.1,0.1,0.3,0.1,0.4,0.1c0.2,0,0.3,0,0.5,0h1.8h5.1h1.6c0.1,0,0.3,0,0.4,0
				c0.1,0,0.3,0,0.4,0c0.2,0,0.4,0.1,0.4,0.2c0,0,0.1,0.1,0.1,0.2c0,0.1,0,0.1,0,0.2c0,0.1,0,0.2,0,0.2c0,0.1,0,0.1,0,0.2
				c-0.1,0.1-0.2,0.1-0.2,0.2c-0.1,0-0.3,0.1-0.4,0.1c-0.2,0-0.3,0-0.5,0h-1.9h-7.3h-1.9c-0.3,0-0.5,0-0.7,0c-0.2,0-0.3-0.1-0.4-0.1
				c-0.1-0.1-0.1-0.1-0.1-0.2c0-0.1,0-0.2,0-0.3v-1.1v-4.1v-3.5v-1c0-0.1,0-0.2,0-0.3c0-0.1,0-0.2,0.1-0.2c0.1-0.1,0.2-0.1,0.4-0.2
				c0,0,0.1,0,0.1,0C214.6,93.6,214.7,93.6,214.7,93.6z"/>
			<path class="st0" d="M252.3,98.8c0,0.1,0,0.2,0,0.3c0,0.1,0,0.2,0,0.3v0.2c0,0,0,0.1,0,0.1c0,0,0,0.1,0,0.1c0,0.1,0,0.1,0,0.2
				c0,0.1,0,0.1,0,0.2c-0.1,0.1-0.1,0.3-0.1,0.5c0,0.2-0.1,0.3-0.2,0.5c-0.1,0.1-0.1,0.3-0.2,0.4c-0.1,0.1-0.1,0.3-0.2,0.4
				c-0.3,0.4-0.7,0.8-1.2,1.2c-0.5,0.4-1,0.7-1.7,0.9c-0.4,0.1-0.7,0.2-1.1,0.3c-0.4,0.1-0.8,0.2-1.3,0.3c-0.2,0-0.4,0.1-0.6,0.1
				c-0.2,0-0.4,0-0.7,0.1c-0.2,0-0.4,0-0.6,0c-0.2,0-0.4,0-0.6,0h-0.4c-0.1,0-0.1,0-0.2,0c-0.1,0-0.1,0-0.2,0h-5.5
				c-0.3,0-0.5,0-0.7,0c-0.2,0-0.4-0.1-0.4-0.2c-0.1-0.1-0.1-0.2-0.1-0.4c0-0.2,0-0.3,0-0.4v-9.1c0-0.1,0-0.3,0-0.4
				c0-0.1,0-0.3,0.1-0.3c0.1-0.1,0.2-0.1,0.4-0.1c0,0,0.1,0,0.1,0c0,0,0.1,0,0.1,0h5.9c0.1,0,0.2,0,0.3,0c0.1,0,0.2,0,0.2,0
				c0.1,0,0.2,0,0.3,0c0.1,0,0.2,0,0.3,0c0.1,0,0.2,0,0.3,0c0.1,0,0.2,0,0.3,0c0.1,0,0.2,0,0.3,0c0.1,0,0.2,0,0.3,0
				c0.2,0,0.4,0,0.6,0c0.2,0,0.4,0,0.6,0.1c0.4,0.1,0.8,0.1,1.1,0.2c0.4,0.1,0.7,0.2,1,0.3c0.3,0.1,0.5,0.2,0.7,0.2
				c0.1,0,0.1,0,0.2,0.1c0.1,0,0.1,0,0.2,0.1c0.1,0.1,0.2,0.1,0.3,0.2c0.1,0.1,0.2,0.1,0.3,0.2c0.1,0,0.2,0.1,0.2,0.1
				c0.1,0.1,0.2,0.1,0.2,0.2c0.1,0.1,0.2,0.1,0.2,0.2c0.1,0.1,0.2,0.1,0.2,0.2c0.1,0.1,0.1,0.1,0.2,0.2c0,0,0.1,0.1,0.1,0.1
				c0,0,0,0.1,0.1,0.1c0.1,0.1,0.1,0.2,0.2,0.2c0.1,0.1,0.1,0.2,0.2,0.2c0.1,0.1,0.1,0.2,0.2,0.3c0,0.1,0.1,0.2,0.1,0.3
				c0,0.1,0.1,0.1,0.1,0.2c0,0.1,0,0.1,0.1,0.2c0.1,0.2,0.1,0.4,0.2,0.6C252.3,98.4,252.3,98.6,252.3,98.8z M249.7,99.6
				c0-0.1,0.1-0.2,0.1-0.3c0-0.1,0-0.2,0-0.3c0-0.1,0-0.2,0-0.2c0-0.1,0-0.2,0-0.2c0,0,0-0.1,0-0.1c0,0,0-0.1,0-0.1
				c0-0.1-0.1-0.2-0.1-0.3c0-0.1,0-0.2-0.1-0.3c0-0.1-0.1-0.2-0.1-0.2c0-0.1-0.1-0.2-0.1-0.2c-0.2-0.4-0.5-0.7-0.8-1
				c-0.5-0.5-1.3-0.8-2.3-1.1c-0.2-0.1-0.3-0.1-0.5-0.1c-0.2,0-0.4-0.1-0.6-0.1c-0.2,0-0.4-0.1-0.6-0.1c-0.2,0-0.4,0-0.6,0h-0.6
				c-0.1,0-0.1,0-0.2,0c-0.1,0-0.1,0-0.2,0h-3.3c0,0-0.1,0-0.1,0c-0.1,0-0.1,0-0.1,0c-0.1,0-0.2,0-0.3,0.1c-0.1,0-0.1,0.1-0.2,0.1
				c0,0-0.1,0.1-0.1,0.2v0.1c0,0,0,0.1,0,0.1c0,0,0,0.1,0,0.1v7c0,0.1,0,0.1,0,0.1c0,0,0,0.1,0,0.1v0.1c0,0.1,0.1,0.2,0.1,0.2
				c0.1,0.1,0.4,0.2,0.8,0.2c0.4,0,0.8,0,1.2,0h1.6c0.1,0,0.3,0,0.4,0c0.1,0,0.3,0,0.4,0h0.3c0.1,0,0.2,0,0.3,0c0.1,0,0.2,0,0.3,0
				c0.1,0,0.2,0,0.3,0c0.1,0,0.2,0,0.4,0c0.2,0,0.4-0.1,0.6-0.1c0.2,0,0.4-0.1,0.6-0.1c0.7-0.2,1.3-0.4,1.7-0.7
				c0.5-0.3,0.9-0.6,1.2-1c0.1-0.1,0.2-0.2,0.2-0.4c0.1-0.1,0.1-0.3,0.2-0.4c0.1-0.1,0.1-0.2,0.1-0.4c0-0.1,0.1-0.3,0.1-0.4
				c0-0.1,0-0.1,0-0.1C249.7,99.7,249.7,99.7,249.7,99.6z"/>
			<path class="st0" d="M280.3,93.3c1,0,2,0,2.8,0.1c0.8,0.1,1.5,0.3,2.1,0.5c0.1,0,0.2,0.1,0.3,0.1c0.1,0,0.2,0.1,0.3,0.1
				c0,0,0.1,0,0.1,0.1c0,0,0.1,0,0.1,0.1c0,0,0.1,0,0.1,0.1c0.1,0,0.1,0.1,0.1,0.1c0.1,0.1,0.1,0.1,0.2,0.2c0.1,0.1,0.1,0.1,0.2,0.2
				c0.1,0.1,0.1,0.1,0.2,0.2c0,0.1,0.1,0.1,0.1,0.2c0.2,0.1,0.3,0.3,0.4,0.5c0.1,0.2,0.2,0.4,0.3,0.6c0,0.1,0.1,0.2,0,0.3
				c0,0.1,0,0.2-0.1,0.2c-0.1,0.1-0.2,0.1-0.4,0.1c-0.2,0-0.4,0-0.6,0c-0.1,0-0.2,0-0.2,0c-0.1,0-0.1,0-0.2,0c-0.1,0-0.2,0-0.2,0
				c-0.1,0-0.1,0-0.2,0c0,0-0.1,0-0.1,0c0,0-0.1,0-0.1-0.1c-0.1-0.1-0.2-0.2-0.2-0.3c0-0.1-0.1-0.3-0.2-0.4
				c-0.3-0.4-0.8-0.7-1.3-0.9c-0.4-0.2-0.9-0.3-1.5-0.4c-0.1,0-0.2,0-0.3,0c-0.1,0-0.2,0-0.3,0h-0.2c-0.1,0-0.3,0-0.4,0
				c-0.1,0-0.3,0-0.4,0c-0.9,0-1.7,0.1-2.4,0.2c-0.4,0.1-0.7,0.2-1,0.3c-0.3,0.1-0.5,0.3-0.7,0.5c-0.1,0.1-0.1,0.2-0.1,0.3
				c0,0.1-0.1,0.2-0.1,0.3c0,0.1,0,0.2,0,0.3c0,0.1,0,0.2,0.1,0.3c0.1,0.2,0.3,0.4,0.5,0.5c0.2,0.1,0.5,0.2,0.8,0.4
				c0.4,0.1,0.9,0.3,1.3,0.3c0.5,0.1,1,0.2,1.5,0.2c0.2,0,0.3,0,0.5,0c0.2,0,0.3,0,0.5,0.1c0.3,0,0.5,0.1,0.8,0.1
				c0.3,0,0.5,0.1,0.8,0.1c0.1,0,0.1,0,0.2,0c0.1,0,0.1,0,0.2,0c0.2,0,0.3,0,0.5,0.1c0.2,0,0.3,0.1,0.5,0.1c0.4,0.1,0.7,0.2,1.1,0.2
				c0.3,0.1,0.7,0.2,1,0.3c0.4,0.1,0.8,0.3,1.1,0.5c0.3,0.2,0.6,0.4,0.8,0.7c0.1,0.1,0.1,0.2,0.2,0.3c0,0.1,0.1,0.2,0.1,0.3
				c0,0.1,0.1,0.1,0.1,0.2c0,0.1,0,0.1,0.1,0.2v0.2v0.1c0,0,0,0.1,0,0.1c0,0,0,0.1,0,0.1c0,0.1-0.1,0.2-0.1,0.3c0,0.1,0,0.2-0.1,0.3
				c-0.1,0.2-0.2,0.3-0.3,0.5c-0.1,0.1-0.2,0.3-0.4,0.4c-0.3,0.3-0.7,0.5-1.2,0.7c-0.5,0.2-1,0.4-1.5,0.5c-0.2,0-0.4,0.1-0.5,0.1
				c-0.2,0-0.4,0.1-0.6,0.1c-0.2,0-0.4,0.1-0.6,0.1c-0.2,0-0.4,0-0.7,0.1c-0.1,0-0.2,0-0.3,0c-0.1,0-0.2,0-0.3,0c-0.1,0-0.2,0-0.3,0
				c-0.1,0-0.2,0-0.3,0c-0.1,0-0.2,0-0.4,0c-0.2,0-0.3,0-0.4,0h-0.3c-0.2,0-0.4,0-0.5,0c-0.2,0-0.4,0-0.5,0c-0.1,0-0.1,0-0.2,0
				c-0.1,0-0.2,0-0.2,0c-0.2,0-0.4,0-0.6-0.1c-0.2,0-0.4-0.1-0.5-0.1c-0.9-0.2-1.7-0.4-2.3-0.6c-0.6-0.2-1.1-0.6-1.6-1
				c-0.1-0.1-0.3-0.3-0.4-0.4c-0.1-0.1-0.2-0.3-0.3-0.5c0-0.1-0.1-0.1-0.1-0.2c0-0.1,0-0.1-0.1-0.2c0-0.1-0.1-0.2-0.1-0.3
				c0-0.1,0-0.2,0.1-0.3c0.1-0.1,0.2-0.1,0.5-0.1c0.2,0,0.4,0,0.6,0c0.1,0,0.2,0,0.2,0c0.1,0,0.2,0,0.2,0c0.1,0,0.2,0,0.2,0
				c0.1,0,0.1,0,0.2,0c0.1,0,0.2,0.1,0.2,0.1c0.1,0.1,0.1,0.1,0.1,0.2c0,0.1,0,0.1,0.1,0.2c0,0.1,0.1,0.1,0.1,0.2
				c0,0.1,0.1,0.1,0.1,0.2c0.3,0.4,0.8,0.8,1.4,1.1c0.3,0.1,0.6,0.2,1,0.3c0.4,0.1,0.8,0.2,1.2,0.2c0.1,0,0.3,0,0.4,0
				c0.1,0,0.3,0,0.4,0c0,0,0.1,0,0.1,0c0.1,0,0.1,0,0.2,0c0.1,0,0.2,0,0.3,0c0.1,0,0.2,0,0.3,0c0.1,0,0.2,0,0.3,0c0.1,0,0.2,0,0.3,0
				h0.2c0.1,0,0.2,0,0.3,0c0.1,0,0.2,0,0.3,0c0.1,0,0.1,0,0.2,0c0,0,0.1,0,0.2,0c0.1,0,0.3,0,0.5,0c0.2,0,0.3,0,0.5-0.1
				c0.5-0.1,0.9-0.2,1.3-0.4c0.4-0.1,0.7-0.4,0.9-0.6c0.1-0.1,0.1-0.2,0.1-0.2c0-0.1,0.1-0.2,0.1-0.2c0-0.1,0.1-0.2,0.1-0.3
				c0-0.1,0-0.2-0.1-0.3c0-0.1-0.1-0.1-0.1-0.1c0,0,0-0.1-0.1-0.1c-0.1-0.2-0.3-0.3-0.4-0.4c-0.2-0.1-0.4-0.2-0.7-0.3
				c-0.4-0.2-0.8-0.3-1.3-0.4c-0.5-0.1-1-0.2-1.5-0.2c-0.5-0.1-1.1-0.1-1.6-0.2c-0.5-0.1-1.1-0.1-1.6-0.2c-0.3-0.1-0.6-0.1-0.9-0.1
				c-0.3,0-0.6-0.1-0.8-0.1c0,0-0.1,0-0.1,0c0,0,0,0-0.1,0c-0.2,0-0.4-0.1-0.6-0.1c-0.2,0-0.4-0.1-0.5-0.2c-0.4-0.1-0.8-0.3-1.2-0.5
				c-0.3-0.2-0.6-0.4-0.8-0.7c-0.1-0.1-0.2-0.2-0.2-0.3c0-0.1-0.1-0.2-0.1-0.3c0,0,0-0.1,0-0.1c0,0,0-0.1,0-0.1
				c-0.1-0.1-0.1-0.3,0-0.5c0-0.2,0.1-0.3,0.1-0.4c0.1-0.1,0.1-0.2,0.2-0.3s0.1-0.2,0.2-0.3c0.3-0.3,0.6-0.6,1-0.8
				c0.4-0.2,0.8-0.4,1.3-0.6c0,0,0.1,0,0.1,0c0.1,0,0.1,0,0.1,0c0.4-0.1,0.9-0.2,1.4-0.3c0.1,0,0.3,0,0.4,0c0.1,0,0.3,0,0.4-0.1
				c0.2,0,0.3,0,0.5,0c0.2,0,0.3,0,0.5,0c0.1,0,0.1,0,0.2,0C280.2,93.4,280.3,93.4,280.3,93.3z"/>
			<path class="st0" d="M305.3,93.3c1.8,0,3.3,0.1,4.5,0.5c1.2,0.3,2.2,0.8,2.8,1.4c0.2,0.2,0.3,0.3,0.5,0.5
				c0.1,0.1,0.2,0.3,0.3,0.5c0,0,0.1,0.1,0.1,0.2c0,0.1,0,0.2,0,0.2c0,0.1-0.1,0.1-0.2,0.1c-0.1,0-0.2,0-0.3,0.1h-0.3
				c-0.1,0-0.1,0-0.2,0c-0.1,0-0.2,0-0.2,0c-0.3,0-0.5,0-0.7,0c-0.2,0-0.4-0.1-0.4-0.1c-0.1-0.1-0.2-0.2-0.3-0.4
				c-0.1-0.1-0.2-0.3-0.3-0.4c-0.2-0.2-0.5-0.4-0.8-0.6c-0.3-0.2-0.7-0.3-1.1-0.5c-0.2-0.1-0.5-0.1-0.7-0.2c-0.3,0-0.5-0.1-0.8-0.1
				c-0.2,0-0.4,0-0.7-0.1c-0.3,0-0.5,0-0.8,0c-0.3,0-0.6,0-0.8,0c-0.3,0-0.5,0-0.7,0.1c-0.2,0-0.4,0-0.5,0.1c-0.2,0-0.3,0.1-0.5,0.1
				c-1.5,0.4-2.6,1-3.3,1.9c-0.1,0.1-0.2,0.3-0.3,0.5c-0.1,0.2-0.2,0.3-0.3,0.5c0,0.1-0.1,0.1-0.1,0.2c0,0.1,0,0.1-0.1,0.2
				c0,0,0,0.1,0,0.1c0,0,0,0.1,0,0.1c0,0.1-0.1,0.2-0.1,0.3c0,0.1,0,0.2,0,0.4c0,0.1,0,0.1,0,0.2c0,0.1,0,0.1,0,0.2v0.2
				c0,0.1,0.1,0.1,0,0.2c0,0.1,0,0.1,0,0.2c0,0.1,0.1,0.1,0,0.2c0,0.1,0,0.1,0,0.2c0.1,0.1,0.1,0.3,0.1,0.4c0,0.1,0.1,0.3,0.2,0.4
				c0.3,0.5,0.7,1,1.2,1.3c0.5,0.4,1.1,0.7,1.9,0.9c0.3,0.1,0.5,0.1,0.8,0.2c0.3,0,0.5,0.1,0.9,0.1c0.1,0,0.2,0,0.4,0
				c0.1,0,0.2,0,0.4,0c0.1,0,0.3,0,0.5,0c0.2,0,0.4,0,0.5,0h0.2c0.1,0,0.1,0,0.2,0c0.1,0,0.1,0,0.2,0c0.2,0,0.4,0,0.5-0.1
				c0.2,0,0.3,0,0.5-0.1c1.4-0.3,2.4-0.9,3-1.6c0.1-0.2,0.3-0.4,0.4-0.7c0-0.1,0.1-0.2,0.1-0.3c0-0.1,0.1-0.2,0.2-0.3
				c0.1-0.1,0.2-0.1,0.4-0.1c0.2,0,0.4,0,0.7,0c0.1,0,0.2,0,0.3,0c0.1,0,0.2,0,0.2,0h0.2c0.1,0,0.1,0,0.2,0c0.1,0,0.1,0,0.2,0
				c0.1,0,0.2,0.1,0.2,0.2c0,0.1,0,0.2-0.1,0.3c-0.1,0.2-0.2,0.5-0.3,0.7c-0.1,0.2-0.2,0.4-0.4,0.6c-0.2,0.1-0.3,0.3-0.4,0.4
				c-0.1,0.1-0.2,0.3-0.4,0.4c-0.3,0.3-0.7,0.5-1.2,0.7c-0.5,0.2-1,0.4-1.6,0.6c-0.2,0-0.4,0.1-0.6,0.1c-0.2,0-0.4,0.1-0.6,0.1
				c-0.2,0-0.4,0.1-0.6,0.1c-0.2,0-0.4,0-0.6,0.1c-0.1,0-0.2,0-0.2,0c-0.1,0-0.2,0-0.2,0c-0.1,0-0.2,0-0.3,0c-0.1,0-0.2,0-0.4,0
				c-0.1,0-0.2,0-0.4,0c-0.2,0-0.3,0-0.4,0c-0.1,0-0.2,0-0.3,0c-0.1,0-0.2,0-0.3,0h-0.3c-0.1,0-0.3,0-0.4,0c-0.1,0-0.3,0-0.4,0
				c-0.2,0-0.3,0-0.5-0.1c-0.2,0-0.3,0-0.5-0.1c-0.4-0.1-0.7-0.1-1-0.2c-1.2-0.3-2.1-0.7-2.8-1.2c-0.7-0.5-1.3-1.1-1.7-1.8
				c-0.1-0.1-0.1-0.3-0.2-0.4c0-0.1-0.1-0.3-0.1-0.4c0-0.1-0.1-0.1,0-0.1c0,0,0-0.1,0-0.1c0-0.1-0.1-0.2-0.1-0.3
				c0-0.1,0-0.2-0.1-0.3v-0.3c0-0.1,0-0.1,0-0.3c0-0.1,0-0.2,0-0.3c0,0,0-0.1,0-0.1c0,0,0-0.1,0-0.1v-0.1c0-0.1,0-0.2,0-0.3
				c0-0.1,0-0.2,0.1-0.3c0-0.1,0.1-0.1,0.1-0.2c0-0.1,0-0.1,0.1-0.2c0.1-0.2,0.2-0.3,0.2-0.5c0.1-0.2,0.1-0.3,0.3-0.5
				c0.1-0.1,0.2-0.3,0.3-0.4c0.1-0.1,0.2-0.3,0.3-0.4c0.3-0.3,0.5-0.5,0.8-0.7c0.1-0.1,0.1-0.1,0.2-0.1c0.1,0,0.1-0.1,0.2-0.1
				c0.1-0.1,0.2-0.2,0.3-0.2c0.1-0.1,0.2-0.1,0.4-0.2c0.1-0.1,0.2-0.1,0.3-0.1c0.1,0,0.2-0.1,0.3-0.1c0.3-0.1,0.6-0.2,0.9-0.3
				c0.3-0.1,0.6-0.2,0.9-0.2c0.2-0.1,0.4-0.1,0.6-0.1c0.2,0,0.5-0.1,0.7-0.1c0.1,0,0.2,0,0.4,0c0.1,0,0.2,0,0.3,0c0.1,0,0.3,0,0.4,0
				c0.1,0,0.3,0,0.4,0c0,0,0.1,0,0.1,0C305.2,93.3,305.2,93.3,305.3,93.3z"/>
			<path class="st0" d="M338,104.2c0.1,0.1,0.1,0.2-0.1,0.3c-0.1,0-0.2,0-0.3,0.1c-0.1,0-0.3,0-0.4,0c-0.3,0-0.6,0-0.9,0
				c-0.3,0-0.5,0-0.7-0.1c-0.1-0.1-0.2-0.1-0.3-0.2c0-0.1-0.1-0.2-0.1-0.3c0,0,0-0.1,0-0.1c0,0,0-0.1,0-0.1c0-0.1,0-0.1,0-0.1
				c0,0,0-0.1,0-0.1c0-0.1,0-0.1,0-0.2c0-0.1,0-0.1,0-0.2l-0.1-0.7c0-0.1,0-0.1,0-0.2c0-0.1,0-0.1-0.1-0.2c-0.1-0.2-0.2-0.4-0.2-0.6
				c0-0.2-0.1-0.4-0.3-0.5c-0.3-0.4-0.9-0.7-1.7-0.9c-0.2-0.1-0.5-0.1-0.8-0.1c-0.3,0-0.6,0-0.9,0h-5c-0.1,0-0.2,0-0.3,0.1
				c-0.1,0-0.2,0-0.3,0.1c-0.1,0.1-0.2,0.3-0.2,0.5c0,0.2,0,0.4,0,0.6v2.2c0,0.1,0,0.3,0,0.5c0,0.2,0,0.4-0.1,0.5
				c0,0.1-0.1,0.1-0.2,0.1c-0.1,0-0.1,0-0.2,0c-0.1,0-0.1,0-0.2,0c-0.1,0-0.2,0-0.2,0c-0.1,0-0.2,0-0.3,0c-0.2,0-0.4,0-0.6,0
				c-0.2,0-0.4,0-0.5-0.1c-0.1-0.1-0.2-0.1-0.2-0.3c0-0.1,0-0.3,0-0.4v-9.4c0-0.1,0-0.2,0-0.4c0-0.1,0-0.2,0.1-0.3
				c0.1-0.1,0.2-0.1,0.4-0.2c0,0,0.1,0,0.1,0c0,0,0.1,0,0.1,0h7.9c0.1,0,0.3,0,0.4,0c0.1,0,0.3,0,0.4,0h0.3c0.1,0,0.2,0,0.3,0
				c0.1,0,0.2,0,0.4,0c0.1,0,0.3,0,0.4,0c0.2,0,0.3,0,0.5,0c0.3,0.1,0.7,0.1,1,0.2c0.3,0.1,0.6,0.2,0.8,0.3c0.5,0.2,0.8,0.4,1.1,0.6
				c0.3,0.2,0.5,0.5,0.7,0.9c0,0.1,0.1,0.2,0.1,0.3c0,0.1,0,0.2,0.1,0.3v0.2c0,0.1,0,0.1,0,0.2c0,0.1,0,0.1,0,0.2v0.2
				c0,0.1-0.1,0.2-0.1,0.2c0,0.1,0,0.1-0.1,0.2c-0.1,0.2-0.2,0.3-0.3,0.4c-0.1,0.1-0.2,0.3-0.3,0.4c-0.1,0.1-0.1,0.1-0.2,0.1
				c-0.1,0-0.1,0.1-0.2,0.1c0,0,0,0-0.1,0c0,0,0,0-0.1,0c0,0-0.1,0.1-0.1,0.1c0,0-0.1,0.1-0.1,0.1c-0.2,0.1-0.3,0.1-0.4,0.2
				c-0.1,0.1-0.3,0.1-0.4,0.2c-0.1,0-0.2,0.1-0.2,0.1c-0.1,0-0.1,0.1-0.1,0.1c0,0.1,0,0.1,0.1,0.2c0.1,0,0.2,0.1,0.3,0.1
				c0.2,0.1,0.4,0.1,0.6,0.2c0.2,0.1,0.3,0.2,0.5,0.3c0.2,0.1,0.3,0.3,0.4,0.5c0.1,0.2,0.2,0.4,0.3,0.6c0,0.1,0,0.2,0.1,0.2
				c0,0.1,0,0.2,0.1,0.2c0,0.1,0,0.1,0,0.2c0,0.1,0,0.1,0,0.2v0.1c0,0.1,0,0.1,0,0.2c0,0.1,0,0.2,0,0.3c0,0,0,0.1,0,0.1
				c0,0,0,0.1,0,0.1c0,0.1,0.1,0.2,0.1,0.3c0,0.1,0.1,0.2,0.1,0.3c0,0.1,0.1,0.1,0.1,0.2c0,0.1,0,0.1,0.1,0.2L338,104.2z
				 M334.6,97.8c0.1-0.1,0.2-0.2,0.3-0.4c0.1-0.1,0.1-0.3,0.2-0.4v-0.1c0.1-0.1,0.1-0.3,0-0.5c0-0.2-0.1-0.3-0.2-0.4
				c-0.3-0.5-0.9-0.9-1.7-1.1c-0.4-0.1-0.8-0.1-1.3-0.1c-0.5,0-1,0-1.5,0h-4.5c0,0-0.1,0-0.1,0c0,0-0.1,0-0.2,0
				c-0.2,0-0.4,0.1-0.4,0.2c-0.1,0.1-0.1,0.2-0.1,0.4c0,0.2,0,0.3,0,0.4v1.8c0,0.2,0,0.3,0,0.5c0,0.2,0.1,0.3,0.2,0.4
				c0.1,0.1,0.2,0.1,0.4,0.1c0.2,0,0.4,0,0.6,0h1.7c0.7,0,1.4,0,2.1,0c0.7,0,1.3,0,1.9-0.1c0.6,0,1.1-0.1,1.6-0.3
				C334,98.2,334.4,98,334.6,97.8z"/>
			<path class="st0" d="M347.6,93.6h9h2.4c0.2,0,0.4,0,0.6,0c0.2,0,0.4,0,0.5,0.1c0.1,0,0.1,0,0.1,0.1c0,0,0.1,0.1,0.1,0.1
				c0,0.1,0.1,0.2,0.1,0.3c0,0.2,0,0.3-0.1,0.4c-0.1,0.1-0.2,0.2-0.5,0.2c-0.2,0-0.5,0-0.9,0h-2.7h-4.6c-0.3,0-0.6,0-1,0
				c-0.4,0-0.7,0-0.9,0.1c-0.2,0.1-0.3,0.2-0.3,0.3c0,0.2,0,0.3,0,0.5v1.6c0,0.1,0,0.2,0,0.4c0,0.2,0,0.3,0,0.4
				c0.1,0.1,0.2,0.2,0.3,0.3c0.1,0,0.2,0,0.4,0.1h0.3c0.1,0,0.2,0,0.2,0c0.1,0,0.2,0,0.3,0h0.9h5.4c0.2,0,0.3,0,0.5,0
				c0.2,0,0.4,0,0.6,0c0.2,0,0.4,0,0.6,0c0.2,0,0.3,0,0.4,0.1c0.1,0,0.1,0.1,0.1,0.1c0,0.1,0.1,0.2,0.1,0.2c0,0.1,0,0.2,0,0.3
				c0,0.1,0,0.2-0.1,0.2c0,0.1-0.1,0.2-0.2,0.2c0,0-0.1,0-0.2,0c-0.1,0-0.1,0-0.2,0h-0.2c-0.1,0-0.2,0-0.3,0c-0.1,0-0.2,0-0.3,0h-1
				h-5.8c-0.2,0-0.4,0-0.6,0c-0.2,0-0.4,0-0.6,0c-0.2,0-0.3,0-0.5,0.1c-0.1,0-0.2,0.1-0.3,0.2c0,0.1,0,0.1,0,0.2c0,0.1,0,0.2,0,0.2
				v0.9v1.5c0,0.1,0,0.3,0,0.4c0,0.1,0.1,0.2,0.2,0.2c0.1,0.1,0.3,0.1,0.4,0.1c0.2,0,0.3,0,0.6,0h1.8h5.1h1.6c0.1,0,0.3,0,0.4,0
				c0.1,0,0.3,0,0.4,0c0.2,0,0.4,0.1,0.4,0.2c0,0,0.1,0.1,0.1,0.2c0,0.1,0,0.1,0,0.2c0,0.1,0,0.2,0,0.2c0,0.1,0,0.1-0.1,0.2
				c-0.1,0.1-0.2,0.1-0.2,0.2c-0.1,0-0.3,0.1-0.4,0.1c-0.2,0-0.3,0-0.5,0h-1.9H350H348c-0.3,0-0.5,0-0.7,0c-0.2,0-0.3-0.1-0.4-0.1
				c-0.1-0.1-0.1-0.1-0.1-0.2c0-0.1,0-0.2,0-0.3v-1.1v-4.1v-3.5v-1c0-0.1,0-0.2,0-0.3c0-0.1,0-0.2,0.1-0.2c0.1-0.1,0.2-0.1,0.4-0.2
				c0,0,0.1,0,0.1,0C347.5,93.6,347.6,93.6,347.6,93.6z"/>
			<path class="st0" d="M369.8,93.6h9h2.4c0.2,0,0.4,0,0.6,0c0.2,0,0.4,0,0.5,0.1c0.1,0,0.1,0,0.1,0.1c0,0,0.1,0.1,0.1,0.1
				c0,0.1,0.1,0.2,0.1,0.3c0,0.2,0,0.3-0.1,0.4c-0.1,0.1-0.2,0.2-0.5,0.2c-0.2,0-0.5,0-0.8,0h-2.7h-4.6c-0.3,0-0.6,0-1,0
				c-0.4,0-0.7,0-0.9,0.1c-0.2,0.1-0.3,0.2-0.3,0.3c0,0.2,0,0.3,0,0.5v1.6c0,0.1,0,0.2,0,0.4c0,0.2,0,0.3,0,0.4
				c0.1,0.1,0.2,0.2,0.3,0.3c0.1,0,0.2,0,0.4,0.1h0.3c0.1,0,0.2,0,0.2,0c0.1,0,0.2,0,0.3,0h0.9h5.4c0.2,0,0.4,0,0.6,0
				c0.2,0,0.4,0,0.6,0c0.2,0,0.4,0,0.6,0c0.2,0,0.3,0,0.4,0.1c0.1,0,0.1,0.1,0.1,0.1c0,0.1,0.1,0.2,0.1,0.2c0,0.1,0,0.2,0,0.3
				c0,0.1,0,0.2-0.1,0.2c0,0.1-0.1,0.2-0.2,0.2c0,0-0.1,0-0.2,0c-0.1,0-0.1,0-0.2,0H381c-0.1,0-0.2,0-0.3,0c-0.1,0-0.2,0-0.3,0h-1
				h-5.8c-0.2,0-0.4,0-0.6,0c-0.2,0-0.4,0-0.6,0c-0.2,0-0.3,0-0.5,0.1c-0.1,0-0.2,0.1-0.3,0.2c0,0.1-0.1,0.1,0,0.2
				c0,0.1,0,0.2,0,0.2v0.9v1.5c0,0.1,0,0.3,0,0.4c0,0.1,0.1,0.2,0.2,0.2c0.1,0.1,0.3,0.1,0.4,0.1c0.2,0,0.3,0,0.5,0h1.8h5.1h1.6
				c0.1,0,0.3,0,0.4,0c0.1,0,0.3,0,0.4,0c0.2,0,0.4,0.1,0.4,0.2c0,0,0.1,0.1,0.1,0.2c0,0.1,0,0.1,0,0.2c0,0.1,0,0.2,0,0.2
				c0,0.1,0,0.1-0.1,0.2c-0.1,0.1-0.2,0.1-0.2,0.2c-0.1,0-0.3,0.1-0.4,0.1c-0.2,0-0.3,0-0.5,0h-1.9h-7.3h-1.9c-0.3,0-0.5,0-0.7,0
				c-0.2,0-0.3-0.1-0.4-0.1c-0.1-0.1-0.1-0.1-0.1-0.2c0-0.1,0-0.2,0-0.3v-1.1v-4.1v-3.5v-1c0-0.1,0-0.2,0-0.3c0-0.1,0-0.2,0.1-0.2
				c0.1-0.1,0.2-0.1,0.4-0.2c0,0,0.1,0,0.1,0C369.8,93.6,369.8,93.6,369.8,93.6z"/>
			<path class="st0" d="M392.1,93.6c0.3,0,0.7,0,1.1,0c0.4,0,0.7,0,0.9,0.1c0.1,0.1,0.3,0.2,0.4,0.3c0.1,0.1,0.2,0.2,0.4,0.3
				c0.2,0.2,0.5,0.4,0.7,0.6c0.2,0.2,0.5,0.4,0.7,0.6c0.1,0.1,0.3,0.2,0.4,0.3c0.1,0.1,0.3,0.2,0.4,0.3c0.5,0.5,1.1,1,1.7,1.5
				c0.6,0.5,1.1,1,1.7,1.5c0.1,0.1,0.3,0.3,0.5,0.4c0.2,0.1,0.3,0.3,0.5,0.4c0.3,0.3,0.6,0.6,0.9,0.8c0.3,0.3,0.6,0.5,0.9,0.8
				c0.1,0.1,0.2,0.2,0.3,0.3c0.1,0.1,0.3,0.2,0.5,0.2c0.1,0,0.1,0,0.1,0c0.1-0.1,0.1-0.2,0.1-0.3c0-0.1,0-0.2,0-0.3v-1.2v-4.7v-0.9
				c0-0.1,0-0.1,0-0.2c0-0.1,0-0.2,0-0.2v-0.2c0,0,0.1-0.1,0.1-0.1c0,0,0-0.1,0.1-0.1c0.1-0.1,0.3-0.1,0.5-0.1c0.2,0,0.5,0,0.7,0
				c0.1,0,0.2,0,0.3,0c0.1,0,0.2,0,0.3,0c0.2,0.1,0.3,0.1,0.4,0.3c0,0.1,0,0.3,0,0.5V96v6.5v1.3c0,0.1,0,0.2,0,0.3
				c0,0.1,0,0.2-0.1,0.3c-0.1,0.1-0.2,0.1-0.3,0.1c-0.1,0-0.2,0-0.4,0.1h-0.7c-0.2,0-0.4,0-0.7,0c-0.2,0-0.4,0-0.6-0.1
				c-0.1,0-0.3-0.1-0.3-0.2c-0.1-0.1-0.2-0.1-0.3-0.2c-0.1-0.1-0.3-0.3-0.5-0.4c-0.1-0.1-0.3-0.3-0.5-0.4c-0.7-0.6-1.3-1.1-1.9-1.7
				c-0.6-0.6-1.3-1.1-1.9-1.7c-0.4-0.3-0.7-0.6-1.1-0.9c-0.4-0.3-0.7-0.6-1.1-0.9c-0.6-0.5-1.2-1.1-1.9-1.6
				c-0.1-0.1-0.1-0.1-0.2-0.2c-0.1-0.1-0.2-0.1-0.3-0.2c0,0-0.1,0-0.1,0c0,0-0.1,0-0.1,0c-0.1,0-0.2,0.1-0.2,0.1
				c0,0.1,0,0.1-0.1,0.2v0.1c0,0.1,0,0.2,0,0.2c0,0.1,0,0.2,0,0.3v1v4.9v0.7c0,0.1,0,0.1,0,0.2c0,0.1,0,0.1,0,0.2v0.1
				c0,0.1-0.1,0.2-0.1,0.2c0,0.1-0.1,0.1-0.2,0.1c-0.1,0-0.2,0-0.3,0.1h-0.5c-0.3,0-0.5,0-0.7,0c-0.2,0-0.3-0.1-0.4-0.1
				c-0.1-0.1-0.1-0.1-0.1-0.3c0-0.1,0-0.2,0-0.3v-1.3v-6.5v-1.7c0-0.1,0-0.3,0-0.4c0-0.1,0-0.3,0.1-0.3c0.1-0.1,0.2-0.1,0.3-0.1
				c0,0,0.1,0,0.2,0C392,93.6,392.1,93.6,392.1,93.6z"/>
			<path class="st0" d="M422.9,93.3c1,0,2,0,2.8,0.1c0.8,0.1,1.5,0.3,2.1,0.5c0.1,0,0.2,0.1,0.3,0.1c0.1,0,0.2,0.1,0.3,0.1
				c0,0,0.1,0,0.1,0.1c0,0,0.1,0,0.1,0.1c0,0,0.1,0,0.1,0.1c0.1,0,0.1,0.1,0.1,0.1c0.1,0.1,0.1,0.1,0.2,0.2c0.1,0.1,0.1,0.1,0.2,0.2
				c0.1,0.1,0.1,0.1,0.2,0.2c0,0.1,0.1,0.1,0.1,0.2c0.2,0.1,0.3,0.3,0.4,0.5c0.1,0.2,0.2,0.4,0.3,0.6c0,0.1,0,0.2,0,0.3
				c0,0.1,0,0.2-0.1,0.2c-0.1,0.1-0.2,0.1-0.4,0.1c-0.2,0-0.4,0-0.6,0c-0.1,0-0.2,0-0.2,0c-0.1,0-0.1,0-0.2,0c-0.1,0-0.2,0-0.2,0
				c-0.1,0-0.1,0-0.2,0c0,0-0.1,0-0.1,0c0,0-0.1,0-0.1-0.1c-0.1-0.1-0.2-0.2-0.2-0.3c0-0.1-0.1-0.3-0.2-0.4
				c-0.3-0.4-0.8-0.7-1.3-0.9c-0.4-0.2-0.9-0.3-1.5-0.4c-0.1,0-0.2,0-0.3,0c-0.1,0-0.2,0-0.3,0h-0.2c-0.1,0-0.3,0-0.4,0
				c-0.1,0-0.3,0-0.4,0c-0.9,0-1.7,0.1-2.4,0.2c-0.4,0.1-0.7,0.2-1,0.3c-0.3,0.1-0.5,0.3-0.7,0.5c-0.1,0.1-0.1,0.2-0.2,0.3
				c0,0.1-0.1,0.2-0.1,0.3c0,0.1-0.1,0.2,0,0.3c0,0.1,0,0.2,0.1,0.3c0.1,0.2,0.3,0.4,0.5,0.5c0.2,0.1,0.5,0.2,0.8,0.4
				c0.4,0.1,0.8,0.3,1.3,0.3c0.5,0.1,1,0.2,1.5,0.2c0.2,0,0.3,0,0.5,0c0.2,0,0.3,0,0.5,0.1c0.3,0,0.5,0.1,0.8,0.1
				c0.3,0,0.6,0.1,0.8,0.1c0.1,0,0.1,0,0.2,0c0.1,0,0.1,0,0.2,0c0.2,0,0.3,0,0.5,0.1c0.2,0,0.3,0.1,0.5,0.1c0.4,0.1,0.7,0.2,1.1,0.2
				c0.3,0.1,0.7,0.2,1,0.3c0.4,0.1,0.8,0.3,1.1,0.5c0.3,0.2,0.6,0.4,0.8,0.7c0.1,0.1,0.1,0.2,0.2,0.3c0,0.1,0.1,0.2,0.1,0.3
				c0,0.1,0.1,0.1,0.1,0.2c0,0.1,0,0.1,0,0.2v0.2v0.1c0,0,0,0.1,0,0.1c0,0,0,0.1,0,0.1c0,0.1-0.1,0.2-0.1,0.3c0,0.1,0,0.2-0.1,0.3
				c-0.1,0.2-0.2,0.3-0.3,0.5c-0.1,0.1-0.2,0.3-0.4,0.4c-0.3,0.3-0.7,0.5-1.2,0.7c-0.5,0.2-1,0.4-1.5,0.5c-0.2,0-0.4,0.1-0.5,0.1
				c-0.2,0-0.4,0.1-0.6,0.1c-0.2,0-0.4,0.1-0.6,0.1c-0.2,0-0.4,0-0.7,0.1c-0.1,0-0.2,0-0.3,0c-0.1,0-0.2,0-0.3,0c-0.1,0-0.2,0-0.3,0
				c-0.1,0-0.2,0-0.3,0c-0.1,0-0.2,0-0.4,0c-0.2,0-0.3,0-0.4,0h-0.3c-0.2,0-0.4,0-0.5,0c-0.2,0-0.4,0-0.5,0c-0.1,0-0.1,0-0.2,0
				c-0.1,0-0.2,0-0.2,0c-0.2,0-0.4,0-0.6-0.1c-0.2,0-0.4-0.1-0.5-0.1c-0.9-0.2-1.6-0.4-2.3-0.6c-0.6-0.2-1.1-0.6-1.6-1
				c-0.1-0.1-0.3-0.3-0.4-0.4c-0.1-0.1-0.2-0.3-0.3-0.5c0-0.1-0.1-0.1-0.1-0.2c0-0.1,0-0.1-0.1-0.2c0-0.1-0.1-0.2-0.1-0.3
				c0-0.1,0-0.2,0.1-0.3c0.1-0.1,0.2-0.1,0.4-0.1c0.2,0,0.4,0,0.6,0c0.1,0,0.2,0,0.2,0c0.1,0,0.1,0,0.2,0c0.1,0,0.2,0,0.2,0
				c0.1,0,0.1,0,0.2,0c0.1,0,0.2,0.1,0.2,0.1c0.1,0.1,0.1,0.1,0.1,0.2c0,0.1,0,0.1,0.1,0.2c0,0.1,0.1,0.1,0.1,0.2
				c0,0.1,0.1,0.1,0.1,0.2c0.3,0.4,0.8,0.8,1.4,1.1c0.3,0.1,0.6,0.2,1,0.3c0.4,0.1,0.8,0.2,1.2,0.2c0.1,0,0.3,0,0.4,0
				c0.1,0,0.3,0,0.4,0c0,0,0.1,0,0.1,0c0.1,0,0.1,0,0.2,0c0.1,0,0.2,0,0.3,0c0.1,0,0.2,0,0.3,0c0.1,0,0.2,0,0.3,0c0.1,0,0.3,0,0.3,0
				h0.2c0.1,0,0.2,0,0.3,0c0.1,0,0.2,0,0.3,0c0.1,0,0.1,0,0.2,0c0,0,0.1,0,0.2,0c0.1,0,0.3,0,0.5,0c0.2,0,0.3,0,0.5-0.1
				c0.5-0.1,0.9-0.2,1.3-0.4c0.4-0.1,0.7-0.4,0.9-0.6c0.1-0.1,0.1-0.2,0.1-0.2c0-0.1,0.1-0.2,0.1-0.2c0-0.1,0.1-0.2,0.1-0.3
				c0-0.1,0-0.2-0.1-0.3c0-0.1,0-0.1,0-0.1c0,0,0-0.1-0.1-0.1c-0.1-0.2-0.3-0.3-0.4-0.4c-0.2-0.1-0.4-0.2-0.7-0.3
				c-0.4-0.2-0.8-0.3-1.3-0.4c-0.5-0.1-1-0.2-1.5-0.2c-0.5-0.1-1.1-0.1-1.6-0.2c-0.6-0.1-1.1-0.1-1.6-0.2c-0.3-0.1-0.6-0.1-0.9-0.1
				c-0.3,0-0.6-0.1-0.8-0.1c0,0-0.1,0-0.1,0c0,0,0,0-0.1,0c-0.2,0-0.4-0.1-0.5-0.1c-0.2,0-0.4-0.1-0.5-0.2c-0.4-0.1-0.8-0.3-1.2-0.5
				c-0.3-0.2-0.6-0.4-0.8-0.7c-0.1-0.1-0.2-0.2-0.2-0.3c0-0.1-0.1-0.2-0.1-0.3c0,0,0-0.1,0-0.1c0,0,0-0.1,0-0.1
				c-0.1-0.1-0.1-0.3,0-0.5c0-0.2,0.1-0.3,0.1-0.4c0.1-0.1,0.1-0.2,0.1-0.3c0-0.1,0.1-0.2,0.2-0.3c0.3-0.3,0.6-0.6,1-0.8
				c0.4-0.2,0.9-0.4,1.3-0.6c0,0,0.1,0,0.1,0c0.1,0,0.1,0,0.1,0c0.4-0.1,0.9-0.2,1.4-0.3c0.1,0,0.3,0,0.4,0c0.1,0,0.3,0,0.4-0.1
				c0.1,0,0.3,0,0.5,0c0.2,0,0.3,0,0.5,0c0.1,0,0.1,0,0.2,0C422.7,93.4,422.8,93.4,422.9,93.3z"/>
			<path class="st0" d="M459.2,93.3c1,0,2,0,2.8,0.1c0.8,0.1,1.5,0.3,2.1,0.5c0.1,0,0.2,0.1,0.3,0.1c0.1,0,0.2,0.1,0.3,0.1
				c0,0,0.1,0,0.1,0.1c0,0,0.1,0,0.1,0.1c0,0,0.1,0,0.1,0.1c0.1,0,0.1,0.1,0.1,0.1c0.1,0.1,0.1,0.1,0.2,0.2c0.1,0.1,0.1,0.1,0.2,0.2
				c0.1,0.1,0.1,0.1,0.2,0.2c0,0.1,0.1,0.1,0.1,0.2c0.2,0.1,0.3,0.3,0.4,0.5c0.1,0.2,0.2,0.4,0.3,0.6c0,0.1,0.1,0.2,0,0.3
				c0,0.1,0,0.2-0.1,0.2c-0.1,0.1-0.2,0.1-0.4,0.1c-0.2,0-0.4,0-0.6,0c-0.1,0-0.2,0-0.2,0c-0.1,0-0.1,0-0.2,0c-0.1,0-0.2,0-0.2,0
				c-0.1,0-0.1,0-0.2,0c0,0-0.1,0-0.1,0c0,0-0.1,0-0.1-0.1c-0.1-0.1-0.2-0.2-0.2-0.3c0-0.1-0.1-0.3-0.2-0.4
				c-0.3-0.4-0.8-0.7-1.3-0.9c-0.4-0.2-0.9-0.3-1.5-0.4c-0.1,0-0.2,0-0.3,0c-0.1,0-0.2,0-0.3,0h-0.2c-0.1,0-0.3,0-0.4,0
				c-0.1,0-0.3,0-0.4,0c-1,0-1.7,0.1-2.4,0.2c-0.4,0.1-0.7,0.2-1,0.3c-0.3,0.1-0.5,0.3-0.7,0.5c-0.1,0.1-0.1,0.2-0.2,0.3
				c0,0.1-0.1,0.2-0.1,0.3c0,0.1-0.1,0.2,0,0.3c0,0.1,0,0.2,0.1,0.3c0.1,0.2,0.3,0.4,0.5,0.5c0.2,0.1,0.5,0.2,0.8,0.4
				c0.4,0.1,0.8,0.3,1.3,0.3c0.5,0.1,1,0.2,1.5,0.2c0.2,0,0.3,0,0.5,0c0.2,0,0.3,0,0.5,0.1c0.3,0,0.5,0.1,0.8,0.1
				c0.3,0,0.6,0.1,0.8,0.1c0.1,0,0.1,0,0.2,0c0.1,0,0.1,0,0.2,0c0.2,0,0.3,0,0.5,0.1c0.2,0,0.3,0.1,0.5,0.1c0.4,0.1,0.7,0.2,1.1,0.2
				c0.3,0.1,0.7,0.2,1,0.3c0.4,0.1,0.8,0.3,1.1,0.5c0.3,0.2,0.6,0.4,0.8,0.7c0.1,0.1,0.1,0.2,0.2,0.3c0,0.1,0.1,0.2,0.1,0.3
				c0,0.1,0.1,0.1,0.1,0.2c0,0.1,0,0.1,0.1,0.2v0.2v0.1c0,0,0,0.1,0,0.1c0,0,0,0.1,0,0.1c0,0.1-0.1,0.2-0.1,0.3c0,0.1,0,0.2-0.1,0.3
				c-0.1,0.2-0.2,0.3-0.3,0.5c-0.1,0.1-0.2,0.3-0.4,0.4c-0.3,0.3-0.7,0.5-1.2,0.7c-0.5,0.2-1,0.4-1.5,0.5c-0.2,0-0.4,0.1-0.5,0.1
				c-0.2,0-0.4,0.1-0.6,0.1c-0.2,0-0.4,0.1-0.6,0.1c-0.2,0-0.4,0-0.7,0.1c-0.1,0-0.2,0-0.3,0c-0.1,0-0.2,0-0.3,0c-0.1,0-0.2,0-0.3,0
				c-0.1,0-0.2,0-0.3,0c-0.1,0-0.2,0-0.4,0c-0.2,0-0.3,0-0.4,0h-0.3c-0.2,0-0.4,0-0.5,0c-0.2,0-0.4,0-0.5,0c-0.1,0-0.1,0-0.2,0
				c-0.1,0-0.2,0-0.2,0c-0.2,0-0.4,0-0.6-0.1c-0.2,0-0.4-0.1-0.5-0.1c-0.9-0.2-1.6-0.4-2.3-0.6c-0.6-0.2-1.1-0.6-1.6-1
				c-0.1-0.1-0.3-0.3-0.4-0.4c-0.1-0.1-0.2-0.3-0.3-0.5c0-0.1-0.1-0.1-0.1-0.2c0-0.1,0-0.1-0.1-0.2c0-0.1-0.1-0.2-0.1-0.3
				c0-0.1,0-0.2,0.1-0.3c0.1-0.1,0.2-0.1,0.4-0.1c0.2,0,0.4,0,0.6,0c0.1,0,0.2,0,0.2,0c0.1,0,0.2,0,0.2,0c0.1,0,0.2,0,0.2,0
				c0.1,0,0.1,0,0.2,0c0.1,0,0.2,0.1,0.2,0.1c0.1,0.1,0.1,0.1,0.1,0.2c0,0.1,0,0.1,0.1,0.2c0,0.1,0.1,0.1,0.1,0.2
				c0,0.1,0.1,0.1,0.1,0.2c0.3,0.4,0.8,0.8,1.4,1.1c0.3,0.1,0.7,0.2,1,0.3c0.4,0.1,0.8,0.2,1.2,0.2c0.1,0,0.3,0,0.4,0
				c0.1,0,0.3,0,0.4,0c0,0,0.1,0,0.1,0c0.1,0,0.1,0,0.2,0c0.1,0,0.2,0,0.3,0c0.1,0,0.2,0,0.3,0c0.1,0,0.2,0,0.3,0c0.1,0,0.3,0,0.3,0
				h0.2c0.1,0,0.2,0,0.3,0c0.1,0,0.2,0,0.3,0c0.1,0,0.1,0,0.2,0c0,0,0.1,0,0.2,0c0.1,0,0.3,0,0.5,0c0.2,0,0.3,0,0.5-0.1
				c0.5-0.1,0.9-0.2,1.3-0.4c0.4-0.1,0.7-0.4,0.9-0.6c0.1-0.1,0.1-0.2,0.1-0.2c0-0.1,0.1-0.2,0.1-0.2c0-0.1,0.1-0.2,0.1-0.3
				c0-0.1,0-0.2-0.1-0.3c0-0.1-0.1-0.1-0.1-0.1c0,0,0-0.1-0.1-0.1c-0.1-0.2-0.3-0.3-0.4-0.4c-0.2-0.1-0.4-0.2-0.7-0.3
				c-0.4-0.2-0.8-0.3-1.3-0.4c-0.5-0.1-1-0.2-1.5-0.2c-0.5-0.1-1.1-0.1-1.6-0.2c-0.5-0.1-1.1-0.1-1.6-0.2c-0.3-0.1-0.6-0.1-0.9-0.1
				c-0.3,0-0.6-0.1-0.8-0.1c0,0-0.1,0-0.1,0c0,0,0,0-0.1,0c-0.2,0-0.4-0.1-0.5-0.1c-0.2,0-0.4-0.1-0.5-0.2c-0.4-0.1-0.8-0.3-1.2-0.5
				c-0.3-0.2-0.6-0.4-0.8-0.7c-0.1-0.1-0.2-0.2-0.2-0.3c0-0.1-0.1-0.2-0.1-0.3c0,0,0-0.1,0-0.1c0,0,0-0.1,0-0.1
				c-0.1-0.1-0.1-0.3,0-0.5c0-0.2,0.1-0.3,0.1-0.4c0.1-0.1,0.1-0.2,0.2-0.3c0-0.1,0.1-0.2,0.2-0.3c0.3-0.3,0.6-0.6,1-0.8
				c0.4-0.2,0.9-0.4,1.3-0.6c0,0,0.1,0,0.1,0c0.1,0,0.1,0,0.1,0c0.4-0.1,0.9-0.2,1.4-0.3c0.1,0,0.3,0,0.4,0c0.1,0,0.3,0,0.4-0.1
				c0.1,0,0.3,0,0.5,0c0.2,0,0.3,0,0.5,0c0.1,0,0.1,0,0.2,0C459.1,93.4,459.2,93.4,459.2,93.3z"/>
			<path class="st0" d="M493.8,98.9c0,0.1,0,0.1,0,0.2c0,0.1,0,0.2,0,0.2v0.2c0,0.1-0.1,0.2-0.1,0.3c0,0.1,0,0.2-0.1,0.3
				c0,0.1-0.1,0.2-0.1,0.2c0,0.1,0,0.1-0.1,0.2c-0.1,0.2-0.2,0.3-0.2,0.5c-0.1,0.2-0.2,0.3-0.3,0.5c-0.5,0.8-1.3,1.4-2.2,1.9
				c-0.9,0.5-2,0.9-3.5,1.2c-0.2,0-0.4,0.1-0.6,0.1c-0.2,0-0.4,0.1-0.6,0.1c-0.1,0-0.2,0-0.2,0c-0.1,0-0.1,0-0.2,0l-0.9,0.1
				c-0.1,0-0.2,0-0.4,0c-0.2,0-0.3,0-0.4,0c-0.1,0-0.2,0-0.3,0c-0.1,0-0.2,0-0.2,0h-0.3c-0.1,0-0.3,0-0.4,0c-0.1,0-0.2,0-0.4,0
				c-0.2,0-0.4-0.1-0.5-0.1c-0.2,0-0.4,0-0.5-0.1c-0.2,0-0.4-0.1-0.5-0.1c-0.2,0-0.4-0.1-0.5-0.1c-1.1-0.3-2-0.7-2.8-1.2
				c-0.7-0.5-1.3-1.1-1.8-1.7c-0.1-0.1-0.2-0.3-0.2-0.5c-0.1-0.2-0.1-0.3-0.2-0.5c0,0-0.1-0.1,0-0.1c0,0,0-0.1,0-0.1
				c0-0.1-0.1-0.1-0.1-0.2c0-0.1,0-0.2-0.1-0.2c0,0,0-0.1,0-0.1c0,0,0-0.1,0-0.1v-0.3c0-0.1-0.1-0.1-0.1-0.2c0-0.1,0-0.2,0.1-0.2
				v-0.2l0.1-0.6c0-0.1,0.1-0.1,0.1-0.2c0-0.1,0-0.1,0.1-0.2c0.1-0.2,0.1-0.3,0.2-0.5c0.1-0.2,0.1-0.3,0.2-0.5
				c0.1-0.2,0.3-0.4,0.4-0.6c0.1-0.2,0.3-0.4,0.5-0.5c0.5-0.5,1.1-0.9,1.8-1.2c0.7-0.3,1.5-0.6,2.5-0.8c0.2-0.1,0.4-0.1,0.6-0.1
				c0.2,0,0.5-0.1,0.7-0.1c0.1,0,0.2,0,0.3,0c0.1,0,0.2,0,0.3,0c0.1,0,0.3,0,0.4,0c0.1,0,0.3,0,0.4,0c0,0,0.1,0,0.1,0
				c0.1,0,0.1,0,0.1,0c1.2,0,2.3,0.1,3.2,0.2c0.9,0.2,1.7,0.4,2.4,0.7c0.3,0.1,0.5,0.2,0.8,0.3c0.3,0.1,0.5,0.2,0.7,0.4
				c0.1,0.1,0.1,0.1,0.2,0.1c0.1,0,0.1,0.1,0.2,0.1c0.1,0.1,0.2,0.2,0.3,0.3c0.1,0.1,0.2,0.2,0.3,0.3c0,0,0.1,0.1,0.1,0.1
				c0,0,0.1,0.1,0.1,0.1c0.1,0.1,0.1,0.1,0.2,0.2c0.1,0.2,0.3,0.4,0.4,0.6c0,0.1,0.1,0.1,0.1,0.2c0,0.1,0.1,0.1,0.1,0.2
				c0.1,0.1,0.1,0.2,0.2,0.3c0,0.1,0.1,0.2,0.2,0.3c0,0,0.1,0.1,0.1,0.2c0,0.1,0,0.1,0,0.2c0,0.1,0.1,0.1,0.1,0.2
				c0,0.1,0,0.1,0.1,0.2v0.1c0,0.1,0,0.1,0,0.2C493.7,98.8,493.8,98.8,493.8,98.9z M491.2,99.4c0-0.1,0.1-0.1,0.1-0.3
				c0-0.1,0-0.2-0.1-0.3v-0.1c0-0.1,0-0.1,0-0.1c0,0,0-0.1,0-0.1c0-0.1,0-0.1,0-0.1c0,0,0-0.1,0-0.1c0-0.1-0.1-0.2-0.1-0.3
				c0-0.1-0.1-0.2-0.1-0.3c-0.1-0.1-0.2-0.3-0.2-0.4c-0.1-0.1-0.1-0.2-0.2-0.4c-0.3-0.4-0.7-0.8-1.3-1.1c-0.5-0.3-1.2-0.6-1.9-0.8
				c-0.4-0.1-0.9-0.2-1.4-0.2c-0.3,0-0.5-0.1-0.9-0.1c-0.3,0-0.6,0-0.9,0c-0.1,0-0.3,0-0.4,0c-0.1,0-0.3,0-0.4,0
				c-0.3,0-0.5,0.1-0.8,0.1c-0.2,0-0.5,0.1-0.7,0.1c-1,0.2-1.8,0.6-2.3,1c-0.6,0.4-1,1-1.4,1.6c-0.1,0.1-0.1,0.2-0.2,0.4
				c0,0.1-0.1,0.2-0.1,0.4c0,0,0,0.1,0,0.1c0,0,0,0.1,0,0.1c0,0,0,0.1,0,0.1c0,0,0,0.1,0,0.1v0.1c0,0,0,0.1,0,0.3c0,0.1,0,0.2,0,0.3
				c0,0,0,0.1,0,0.1c0,0,0,0.1,0,0.1c0,0.1,0.1,0.2,0.1,0.3c0,0.1,0,0.2,0.1,0.3c0,0,0,0.1,0,0.1c0,0,0,0.1,0,0.1
				c0.1,0.1,0.1,0.2,0.1,0.3c0,0.1,0.1,0.2,0.2,0.3c0.1,0.1,0.2,0.2,0.2,0.3c0.1,0.1,0.2,0.2,0.3,0.3c0.1,0.1,0.2,0.2,0.3,0.2
				c0.1,0.1,0.2,0.2,0.3,0.2c0.6,0.5,1.3,0.8,2.2,1.1c0.3,0.1,0.5,0.1,0.8,0.2c0.3,0,0.5,0.1,0.9,0.1c0.1,0,0.2,0,0.4,0
				c0.1,0,0.2,0,0.4,0c0.1,0,0.2,0,0.4,0c0.1,0,0.3,0,0.4,0h0.3c0.1,0,0.2,0,0.3,0c0.1,0,0.2,0,0.3,0c0.3,0,0.5-0.1,0.7-0.1
				c0.2,0,0.4-0.1,0.6-0.1c0.9-0.2,1.7-0.5,2.3-0.9c0.6-0.3,1.1-0.8,1.5-1.3c0.1-0.1,0.2-0.3,0.2-0.4c0.1-0.1,0.1-0.3,0.2-0.4
				c0-0.1,0.1-0.1,0.1-0.2c0-0.1,0-0.1,0.1-0.2l0.1-0.5V99.4z"/>
			<path class="st0" d="M503.3,93.6c0.1,0,0.3,0,0.4,0c0.2,0,0.3,0,0.5,0c0.2,0,0.3,0,0.4,0c0.1,0,0.2,0.1,0.3,0.1
				c0.1,0.1,0.2,0.2,0.2,0.3c0,0.1,0,0.3,0,0.4v1.6v5v1.4c0,0.1,0,0.2,0,0.4c0,0.1,0,0.2,0.1,0.3c0.1,0.1,0.2,0.1,0.3,0.2
				c0.1,0,0.2,0,0.4,0c0.1,0,0.3,0,0.4,0h1.4h4.9h1.5c0.1,0,0.3,0,0.4,0c0.1,0,0.3,0,0.4,0c0.2,0,0.4,0.1,0.5,0.2c0,0,0,0.1,0.1,0.2
				c0,0.1,0,0.1,0,0.2c0,0.1,0,0.2,0,0.2c0,0.1,0,0.1-0.1,0.2c0,0.1-0.1,0.1-0.2,0.2c-0.1,0-0.2,0.1-0.4,0.1c-0.2,0-0.3,0-0.5,0
				h-1.8h-6.9h-1.8c-0.3,0-0.5,0-0.7,0c-0.2,0-0.3-0.1-0.4-0.1c-0.1-0.1-0.1-0.1-0.1-0.2c0-0.1,0-0.2,0-0.3v-1.1v-4.2v-3.4v-1
				c0-0.1,0-0.2,0-0.3c0-0.1,0-0.2,0.1-0.2c0.1-0.1,0.2-0.1,0.4-0.2c0,0,0.1,0,0.1,0C503.2,93.6,503.3,93.6,503.3,93.6z"/>
			<path class="st0" d="M523.9,93.6c0.3,0,0.6,0,0.9,0c0.4,0,0.6,0,0.7,0.1c0.1,0.1,0.2,0.2,0.2,0.4c0,0.2,0,0.4,0,0.5v2.3v2.9
				c0,0.4,0,0.7,0,1.1c0,0.3,0.1,0.7,0.3,0.9c0.2,0.4,0.6,0.7,1,1c0.4,0.3,1,0.5,1.7,0.6c0.2,0.1,0.4,0.1,0.6,0.1
				c0.2,0,0.4,0,0.7,0.1c0.1,0,0.2,0,0.3,0c0.1,0,0.2,0,0.3,0h0.3c0.1,0,0.2,0,0.3,0c0.1,0,0.2,0,0.3,0c0.1,0,0.2,0,0.3,0
				c0.1,0,0.2,0,0.3,0c0.2,0,0.4-0.1,0.6-0.1c0.2,0,0.4-0.1,0.6-0.1c0.7-0.2,1.2-0.4,1.6-0.6c0.4-0.3,0.7-0.6,0.9-1
				c0.1-0.2,0.2-0.5,0.3-0.9c0-0.3,0-0.7,0-1v-2.5v-2.7c0-0.2,0-0.4,0-0.6c0-0.2,0.1-0.4,0.2-0.5c0.1-0.1,0.3-0.1,0.5-0.1
				c0.3,0,0.5,0,0.7,0c0.1,0,0.2,0,0.3,0c0.1,0,0.2,0,0.3,0c0.3,0,0.4,0.1,0.5,0.2c0.1,0.1,0.1,0.2,0.1,0.4c0,0.2,0,0.3,0,0.4v2.1
				v3.2c0,0.4,0,0.8,0,1.1c0,0.4-0.1,0.7-0.2,1c-0.3,0.5-0.6,0.9-1,1.3c-0.4,0.4-1,0.7-1.7,0.9c-0.3,0.1-0.6,0.2-0.9,0.3
				c-0.3,0.1-0.6,0.1-1,0.2c-0.2,0-0.3,0.1-0.5,0.1c-0.2,0-0.3,0-0.5,0.1c-0.2,0-0.4,0-0.6,0c-0.2,0-0.4,0-0.6,0h-0.3
				c-0.1,0-0.2,0-0.4,0c-0.2,0-0.3,0-0.4,0h-0.3c-0.1,0-0.3,0-0.4,0c-0.1,0-0.3,0-0.4,0h-0.2c-0.1,0-0.3,0-0.4,0
				c-0.1,0-0.3,0-0.4-0.1c-0.3-0.1-0.6-0.1-0.9-0.1c-0.3,0-0.6-0.1-0.9-0.2c-0.1,0-0.3-0.1-0.4-0.1c-0.1,0-0.2-0.1-0.4-0.1
				c-0.5-0.2-1-0.4-1.4-0.7c-0.4-0.3-0.7-0.6-0.9-0.9c-0.1-0.2-0.2-0.3-0.2-0.5c-0.1-0.2-0.1-0.3-0.2-0.5c0-0.1,0-0.2,0-0.2
				c0-0.1,0-0.2,0-0.2v-0.2c0-0.1,0-0.2,0-0.3c0-0.1,0-0.2,0-0.3v-1v-4v-1.1c0-0.1,0-0.2,0-0.3c0-0.1,0-0.2,0.1-0.2
				c0.1-0.1,0.2-0.1,0.4-0.2C523.8,93.6,523.9,93.6,523.9,93.6z"/>
			<path class="st0" d="M547.2,93.6h11.5h2.1c0.2,0,0.4,0,0.5,0c0.2,0,0.3,0,0.5,0.1c0.1,0.1,0.2,0.1,0.3,0.2c0,0.1,0,0.2,0,0.3v0.2
				c0,0.1-0.1,0.2-0.1,0.2c0,0.1-0.1,0.1-0.2,0.1c-0.1,0.1-0.4,0.1-0.6,0.1c-0.3,0-0.5,0-0.7,0h-3.1c-0.2,0-0.4,0-0.6,0
				c-0.2,0-0.4,0-0.5,0c-0.2,0-0.3,0-0.4,0.1c-0.1,0-0.2,0.1-0.2,0.2c-0.1,0.1-0.1,0.2-0.1,0.4c0,0.1,0,0.3,0,0.4v1.5v4.9v1.6
				c0,0.2,0,0.3,0,0.4c0,0.1-0.1,0.2-0.3,0.3c-0.1,0-0.2,0-0.3,0c-0.1,0-0.3,0-0.4,0c-0.2,0-0.5,0-0.8,0c-0.3,0-0.4,0-0.5-0.1
				c-0.1-0.1-0.2-0.2-0.2-0.3c0-0.1,0-0.2,0-0.4v-1.4v-5.1v-1.5c0-0.1,0-0.2,0-0.4c0-0.1,0-0.3-0.1-0.4c-0.1-0.2-0.3-0.3-0.6-0.3
				c-0.3,0-0.7,0-1,0h-3c-0.2,0-0.5,0-0.8,0c-0.3,0-0.5,0-0.6,0c-0.1,0-0.1,0-0.2-0.1c-0.1,0-0.1,0-0.1-0.1c0,0-0.1-0.1-0.1-0.2
				c0-0.1,0-0.2,0-0.3c0-0.1,0-0.2,0.1-0.3c0-0.1,0.1-0.1,0.1-0.2c0,0,0.1-0.1,0.1-0.1c0.1,0,0.1,0,0.2,0c0,0,0.1,0,0.1,0
				C547.1,93.6,547.2,93.6,547.2,93.6z"/>
			<path class="st0" d="M570.6,93.6c0.1,0,0.3,0,0.4,0c0.2,0,0.3,0,0.5,0c0.2,0,0.3,0,0.4,0c0.1,0,0.2,0.1,0.3,0.1
				c0.1,0.1,0.2,0.2,0.2,0.3c0,0.1,0,0.3,0,0.4v1.5v6v1.8c0,0.1,0,0.3,0,0.4c0,0.1,0,0.3-0.1,0.3c-0.1,0.1-0.2,0.1-0.3,0.1
				c-0.1,0-0.2,0-0.4,0h-0.5c-0.3,0-0.5,0-0.7,0c-0.2,0-0.4-0.1-0.5-0.2c-0.1-0.1-0.1-0.1-0.1-0.3c0-0.1,0-0.2,0-0.3v-1.2v-6.5v-1.7
				c0-0.1,0-0.2,0-0.4c0-0.1,0-0.2,0.1-0.3c0.1-0.1,0.2-0.1,0.4-0.2c0,0,0.1,0,0.1,0C570.6,93.6,570.6,93.6,570.6,93.6z"/>
			<path class="st0" d="M599.9,98.9c0,0.1,0,0.1,0,0.2c0,0.1,0,0.2,0,0.2v0.2c0,0.1-0.1,0.2-0.1,0.3c0,0.1,0,0.2-0.1,0.3
				c0,0.1-0.1,0.2-0.1,0.2c0,0.1,0,0.1-0.1,0.2c-0.1,0.2-0.2,0.3-0.2,0.5c-0.1,0.2-0.2,0.3-0.3,0.5c-0.5,0.8-1.3,1.4-2.2,1.9
				c-0.9,0.5-2,0.9-3.5,1.2c-0.2,0-0.4,0.1-0.6,0.1c-0.2,0-0.4,0.1-0.6,0.1c-0.1,0-0.2,0-0.2,0c-0.1,0-0.1,0-0.2,0l-0.9,0.1
				c-0.1,0-0.2,0-0.4,0c-0.2,0-0.3,0-0.4,0c-0.1,0-0.2,0-0.3,0c-0.1,0-0.2,0-0.2,0h-0.3c-0.1,0-0.3,0-0.4,0c-0.1,0-0.2,0-0.4,0
				c-0.2,0-0.4-0.1-0.5-0.1c-0.2,0-0.4,0-0.5-0.1c-0.2,0-0.4-0.1-0.5-0.1c-0.2,0-0.4-0.1-0.5-0.1c-1.1-0.3-2-0.7-2.8-1.2
				c-0.7-0.5-1.3-1.1-1.8-1.7c-0.1-0.1-0.2-0.3-0.2-0.5c-0.1-0.2-0.1-0.3-0.2-0.5c0,0-0.1-0.1,0-0.1c0,0,0-0.1,0-0.1
				c0-0.1,0-0.1,0-0.2c0-0.1,0-0.2-0.1-0.2c0,0-0.1-0.1,0-0.1c0,0,0-0.1,0-0.1v-0.3c0-0.1-0.1-0.1-0.1-0.2c0-0.1,0-0.2,0.1-0.2v-0.2
				l0.1-0.6c0-0.1,0.1-0.1,0.1-0.2c0-0.1,0-0.1,0.1-0.2c0.1-0.2,0.1-0.3,0.2-0.5c0.1-0.2,0.1-0.3,0.2-0.5c0.1-0.2,0.3-0.4,0.4-0.6
				c0.1-0.2,0.3-0.4,0.5-0.5c0.5-0.5,1.1-0.9,1.8-1.2c0.7-0.3,1.5-0.6,2.5-0.8c0.2-0.1,0.4-0.1,0.6-0.1c0.2,0,0.5-0.1,0.7-0.1
				c0.1,0,0.2,0,0.3,0c0.1,0,0.2,0,0.3,0c0.1,0,0.3,0,0.4,0c0.1,0,0.3,0,0.4,0c0,0,0.1,0,0.1,0c0.1,0,0.1,0,0.1,0
				c1.2,0,2.3,0.1,3.2,0.2c0.9,0.2,1.7,0.4,2.4,0.7c0.3,0.1,0.5,0.2,0.8,0.3c0.3,0.1,0.5,0.2,0.7,0.4c0.1,0.1,0.1,0.1,0.2,0.1
				c0.1,0,0.1,0.1,0.2,0.1c0.1,0.1,0.2,0.2,0.3,0.3c0.1,0.1,0.2,0.2,0.3,0.3c0,0,0.1,0.1,0.1,0.1c0,0,0.1,0.1,0.1,0.1
				c0.1,0.1,0.1,0.1,0.2,0.2c0.1,0.2,0.3,0.4,0.4,0.6c0,0.1,0.1,0.1,0.1,0.2c0,0.1,0.1,0.1,0.1,0.2c0.1,0.1,0.1,0.2,0.2,0.3
				c0,0.1,0.1,0.2,0.1,0.3c0,0,0.1,0.1,0.1,0.2c0,0.1,0,0.1,0,0.2c0,0.1,0.1,0.1,0.1,0.2c0,0.1,0,0.1,0.1,0.2v0.1c0,0.1,0,0.1,0,0.2
				C599.9,98.8,599.9,98.8,599.9,98.9z M597.3,99.4c0-0.1,0.1-0.1,0.1-0.3c0-0.1,0-0.2-0.1-0.3v-0.1c0-0.1,0-0.1,0-0.1
				c0,0,0-0.1,0-0.1c0-0.1-0.1-0.1,0-0.1c0,0,0-0.1,0-0.1c0-0.1-0.1-0.2-0.1-0.3c0-0.1-0.1-0.2-0.1-0.3c-0.1-0.1-0.2-0.3-0.2-0.4
				c-0.1-0.1-0.1-0.2-0.2-0.4c-0.3-0.4-0.7-0.8-1.3-1.1c-0.5-0.3-1.2-0.6-1.9-0.8c-0.4-0.1-0.9-0.2-1.4-0.2c-0.3,0-0.5-0.1-0.9-0.1
				c-0.3,0-0.6,0-0.9,0c-0.1,0-0.3,0-0.4,0c-0.1,0-0.2,0-0.4,0c-0.3,0-0.5,0.1-0.8,0.1c-0.2,0-0.5,0.1-0.7,0.1c-1,0.2-1.8,0.6-2.3,1
				c-0.6,0.4-1,1-1.4,1.6c-0.1,0.1-0.1,0.2-0.1,0.4c0,0.1-0.1,0.2-0.1,0.4c0,0,0,0.1,0,0.1c0,0,0,0.1,0,0.1c0,0,0,0.1,0,0.1
				c0,0,0,0.1,0,0.1v0.1c0,0,0,0.1,0,0.3c0,0.1,0,0.2,0,0.3c0,0,0,0.1,0,0.1c0,0,0,0.1,0,0.1c0,0.1,0.1,0.2,0.1,0.3
				c0,0.1,0,0.2,0.1,0.3c0,0,0,0.1,0,0.1c0,0,0,0.1,0,0.1c0,0.1,0.1,0.2,0.1,0.3c0,0.1,0.1,0.2,0.2,0.3c0.1,0.1,0.2,0.2,0.2,0.3
				c0.1,0.1,0.1,0.2,0.3,0.3c0.1,0.1,0.2,0.2,0.3,0.2c0.1,0.1,0.2,0.2,0.3,0.2c0.6,0.5,1.3,0.8,2.2,1.1c0.3,0.1,0.5,0.1,0.8,0.2
				c0.3,0,0.6,0.1,0.9,0.1c0.1,0,0.2,0,0.4,0c0.1,0,0.2,0,0.4,0c0.1,0,0.2,0,0.4,0c0.1,0,0.3,0,0.4,0h0.3c0.1,0,0.2,0,0.3,0
				c0.1,0,0.2,0,0.3,0c0.3,0,0.5-0.1,0.7-0.1c0.2,0,0.4-0.1,0.6-0.1c0.9-0.2,1.7-0.5,2.3-0.9c0.6-0.3,1.1-0.8,1.5-1.3
				c0.1-0.1,0.2-0.3,0.2-0.4c0.1-0.1,0.1-0.3,0.2-0.4c0-0.1,0.1-0.1,0.1-0.2c0-0.1,0-0.1,0.1-0.2l0.1-0.5V99.4z"/>
			<path class="st0" d="M609.4,93.6c0.3,0,0.7,0,1.1,0c0.4,0,0.7,0,0.9,0.1c0.1,0.1,0.3,0.2,0.4,0.3c0.1,0.1,0.2,0.2,0.4,0.3
				c0.2,0.2,0.5,0.4,0.7,0.6c0.2,0.2,0.5,0.4,0.7,0.6c0.1,0.1,0.3,0.2,0.4,0.3c0.1,0.1,0.3,0.2,0.4,0.3c0.6,0.5,1.1,1,1.7,1.5
				c0.6,0.5,1.1,1,1.7,1.5c0.2,0.1,0.3,0.3,0.5,0.4c0.2,0.1,0.3,0.3,0.5,0.4c0.3,0.3,0.6,0.6,0.9,0.8c0.3,0.3,0.6,0.5,0.9,0.8
				c0.1,0.1,0.2,0.2,0.3,0.3c0.1,0.1,0.3,0.2,0.5,0.2c0.1,0,0.1,0,0.1,0c0.1-0.1,0.1-0.2,0.1-0.3c0-0.1,0-0.2,0-0.3v-1.2v-4.7v-0.9
				c0-0.1,0-0.1,0-0.2c0-0.1,0-0.2,0-0.2v-0.2c0,0,0.1-0.1,0.1-0.1c0,0,0-0.1,0.1-0.1c0.1-0.1,0.3-0.1,0.5-0.1c0.2,0,0.5,0,0.7,0
				c0.1,0,0.2,0,0.3,0c0.1,0,0.2,0,0.3,0c0.2,0.1,0.3,0.1,0.4,0.3c0,0.1,0,0.3,0,0.5V96v6.5v1.3c0,0.1,0,0.2,0,0.3
				c0,0.1,0,0.2-0.1,0.3c-0.1,0.1-0.2,0.1-0.3,0.1c-0.1,0-0.2,0-0.4,0.1h-0.7c-0.2,0-0.4,0-0.7,0c-0.2,0-0.4,0-0.6-0.1
				c-0.1,0-0.3-0.1-0.3-0.2c-0.1-0.1-0.2-0.1-0.3-0.2c-0.1-0.1-0.3-0.3-0.5-0.4c-0.2-0.1-0.3-0.3-0.5-0.4c-0.7-0.6-1.3-1.1-1.9-1.7
				c-0.6-0.6-1.3-1.1-1.9-1.7c-0.3-0.3-0.7-0.6-1-0.9c-0.4-0.3-0.7-0.6-1.1-0.9c-0.6-0.5-1.2-1.1-1.9-1.6c-0.1-0.1-0.1-0.1-0.2-0.2
				c-0.1-0.1-0.2-0.1-0.3-0.2c0,0-0.1,0-0.1,0c0,0-0.1,0-0.1,0c-0.1,0-0.2,0.1-0.2,0.1c0,0.1,0,0.1-0.1,0.2v0.1c0,0.1,0,0.2,0,0.2
				c0,0.1,0,0.2,0,0.3v1v4.9v0.7c0,0.1,0,0.1,0,0.2c0,0.1,0,0.1,0,0.2v0.1c0,0.1-0.1,0.2-0.1,0.2c0,0.1-0.1,0.1-0.2,0.1
				c-0.1,0-0.2,0-0.3,0.1h-0.6c-0.3,0-0.5,0-0.7,0c-0.2,0-0.4-0.1-0.4-0.1c-0.1-0.1-0.1-0.1-0.1-0.3c0-0.1,0-0.2,0-0.3v-1.3v-6.5
				v-1.7c0-0.1,0-0.3,0-0.4c0-0.1,0-0.3,0.1-0.3c0.1-0.1,0.2-0.1,0.3-0.1c0,0,0.1,0,0.2,0C609.3,93.6,609.4,93.6,609.4,93.6z"/>
			<path class="st0" d="M640.1,93.3c1,0,2,0,2.8,0.1c0.8,0.1,1.5,0.3,2.1,0.5c0.1,0,0.2,0.1,0.3,0.1c0.1,0,0.2,0.1,0.3,0.1
				c0,0,0.1,0,0.1,0.1c0,0,0.1,0,0.1,0.1c0,0,0.1,0,0.1,0.1c0.1,0,0.1,0.1,0.1,0.1c0.1,0.1,0.1,0.1,0.2,0.2c0.1,0.1,0.1,0.1,0.2,0.2
				c0.1,0.1,0.1,0.1,0.2,0.2c0,0.1,0.1,0.1,0.2,0.2c0.2,0.1,0.3,0.3,0.4,0.5c0.1,0.2,0.2,0.4,0.3,0.6c0,0.1,0.1,0.2,0,0.3
				c0,0.1,0,0.2-0.1,0.2c-0.1,0.1-0.2,0.1-0.4,0.1c-0.2,0-0.4,0-0.6,0c-0.1,0-0.2,0-0.2,0c-0.1,0-0.1,0-0.2,0c-0.1,0-0.2,0-0.2,0
				c-0.1,0-0.1,0-0.2,0c0,0-0.1,0-0.1,0c0,0-0.1,0-0.1-0.1c-0.1-0.1-0.2-0.2-0.2-0.3c0-0.1-0.1-0.3-0.2-0.4
				c-0.3-0.4-0.8-0.7-1.3-0.9c-0.4-0.2-0.9-0.3-1.5-0.4c-0.1,0-0.2,0-0.3,0c-0.1,0-0.2,0-0.3,0h-0.2c-0.1,0-0.3,0-0.4,0
				c-0.1,0-0.3,0-0.4,0c-0.9,0-1.7,0.1-2.4,0.2c-0.4,0.1-0.7,0.2-1,0.3c-0.3,0.1-0.5,0.3-0.7,0.5c-0.1,0.1-0.1,0.2-0.2,0.3
				c0,0.1-0.1,0.2-0.1,0.3c0,0.1-0.1,0.2,0,0.3c0,0.1,0,0.2,0.1,0.3c0.1,0.2,0.3,0.4,0.5,0.5c0.2,0.1,0.5,0.2,0.8,0.4
				c0.4,0.1,0.9,0.3,1.3,0.3c0.5,0.1,1,0.2,1.5,0.2c0.2,0,0.3,0,0.5,0c0.2,0,0.3,0,0.5,0.1c0.3,0,0.5,0.1,0.8,0.1
				c0.3,0,0.6,0.1,0.8,0.1c0.1,0,0.1,0,0.2,0c0.1,0,0.1,0,0.2,0c0.2,0,0.3,0,0.5,0.1c0.2,0,0.3,0.1,0.5,0.1c0.4,0.1,0.7,0.2,1.1,0.2
				c0.3,0.1,0.7,0.2,1,0.3c0.4,0.1,0.8,0.3,1.1,0.5c0.3,0.2,0.6,0.4,0.8,0.7c0.1,0.1,0.1,0.2,0.2,0.3c0,0.1,0.1,0.2,0.1,0.3
				c0,0.1,0,0.1,0,0.2c0,0.1,0,0.1,0.1,0.2v0.2v0.1c0,0,0,0.1,0,0.1c0,0,0,0.1,0,0.1c0,0.1-0.1,0.2-0.1,0.3c0,0.1,0,0.2-0.1,0.3
				c-0.1,0.2-0.2,0.3-0.3,0.5c-0.1,0.1-0.2,0.3-0.4,0.4c-0.3,0.3-0.7,0.5-1.2,0.7c-0.5,0.2-1,0.4-1.5,0.5c-0.2,0-0.4,0.1-0.5,0.1
				c-0.2,0-0.4,0.1-0.6,0.1c-0.2,0-0.4,0.1-0.6,0.1c-0.2,0-0.4,0-0.7,0.1c-0.1,0-0.2,0-0.3,0c-0.1,0-0.2,0-0.3,0c-0.1,0-0.2,0-0.3,0
				c-0.1,0-0.2,0-0.3,0c-0.1,0-0.2,0-0.4,0c-0.2,0-0.3,0-0.4,0h-0.3c-0.2,0-0.4,0-0.5,0c-0.2,0-0.4,0-0.5,0c-0.1,0-0.1,0-0.2,0
				c-0.1,0-0.2,0-0.2,0c-0.2,0-0.4,0-0.6-0.1c-0.2,0-0.4-0.1-0.5-0.1c-0.9-0.2-1.6-0.4-2.3-0.6c-0.6-0.2-1.1-0.6-1.6-1
				c-0.1-0.1-0.3-0.3-0.4-0.4c-0.1-0.1-0.2-0.3-0.3-0.5c0-0.1-0.1-0.1-0.1-0.2c0-0.1,0-0.1-0.1-0.2c0-0.1-0.1-0.2-0.1-0.3
				c0-0.1,0-0.2,0.1-0.3c0.1-0.1,0.2-0.1,0.5-0.1c0.2,0,0.4,0,0.6,0c0.1,0,0.1,0,0.2,0c0.1,0,0.1,0,0.2,0c0.1,0,0.2,0,0.2,0
				c0.1,0,0.1,0,0.2,0c0.1,0,0.2,0.1,0.3,0.1c0.1,0.1,0.1,0.1,0.1,0.2c0,0.1,0,0.1,0.1,0.2c0,0.1,0.1,0.1,0.1,0.2
				c0,0.1,0.1,0.1,0.1,0.2c0.3,0.4,0.8,0.8,1.4,1.1c0.3,0.1,0.6,0.2,1,0.3c0.4,0.1,0.8,0.2,1.2,0.2c0.1,0,0.3,0,0.4,0
				c0.1,0,0.3,0,0.4,0c0,0,0.1,0,0.1,0c0.1,0,0.1,0,0.2,0c0.1,0,0.2,0,0.3,0c0.1,0,0.2,0,0.3,0c0.1,0,0.2,0,0.3,0s0.2,0,0.3,0h0.2
				c0.1,0,0.2,0,0.3,0c0.1,0,0.2,0,0.3,0c0,0,0.1,0,0.2,0c0,0,0.1,0,0.2,0c0.1,0,0.3,0,0.5,0c0.2,0,0.3,0,0.5-0.1
				c0.5-0.1,0.9-0.2,1.3-0.4c0.4-0.1,0.7-0.4,0.9-0.6c0.1-0.1,0.1-0.2,0.1-0.2c0-0.1,0.1-0.2,0.1-0.2c0-0.1,0.1-0.2,0.1-0.3
				c0-0.1,0-0.2-0.1-0.3c0-0.1-0.1-0.1-0.1-0.1c0,0,0-0.1-0.1-0.1c-0.1-0.2-0.3-0.3-0.4-0.4c-0.2-0.1-0.4-0.2-0.7-0.3
				c-0.4-0.2-0.8-0.3-1.3-0.4c-0.5-0.1-1-0.2-1.5-0.2c-0.5-0.1-1.1-0.1-1.6-0.2c-0.5-0.1-1.1-0.1-1.6-0.2c-0.3-0.1-0.6-0.1-0.9-0.1
				c-0.3,0-0.6-0.1-0.8-0.1c0,0-0.1,0-0.1,0c0,0,0,0-0.1,0c-0.2,0-0.4-0.1-0.5-0.1c-0.2,0-0.4-0.1-0.5-0.2c-0.4-0.1-0.8-0.3-1.2-0.5
				c-0.4-0.2-0.6-0.4-0.8-0.7c-0.1-0.1-0.2-0.2-0.2-0.3c0-0.1-0.1-0.2-0.1-0.3c0,0,0-0.1,0-0.1c0,0,0-0.1,0-0.1
				c-0.1-0.1-0.1-0.3,0-0.5c0-0.2,0.1-0.3,0.1-0.4c0.1-0.1,0.1-0.2,0.2-0.3c0-0.1,0.1-0.2,0.2-0.3c0.3-0.3,0.6-0.6,1-0.8
				c0.4-0.2,0.8-0.4,1.3-0.6c0,0,0.1,0,0.1,0c0.1,0,0.1,0,0.1,0c0.4-0.1,0.9-0.2,1.4-0.3c0.1,0,0.3,0,0.4,0c0.1,0,0.3,0,0.4-0.1
				c0.1,0,0.3,0,0.5,0c0.2,0,0.3,0,0.5,0c0.1,0,0.1,0,0.2,0C640,93.4,640.1,93.4,640.1,93.3z"/>
		</g>
	</g>
	<g>
		<g>
			<polygon class="st2" points="140.1,111.7 136.5,57.9 101.8,53 98.4,57.9 98.4,129.9 135.8,117.2 			"/>
			<linearGradient id="SVGID_1_" gradientUnits="userSpaceOnUse" x1="86.6573" y1="100.305" x2="140.7684" y2="71.9363">
				<stop  offset="0.2251" style="stop-color:#48A6BC"/>
				<stop  offset="0.7906" style="stop-color:#002C2F"/>
			</linearGradient>
			<polygon class="st3" points="101.8,124.7 140.1,111.7 140.1,52.7 101.8,53 			"/>
			<linearGradient id="SVGID_2_" gradientUnits="userSpaceOnUse" x1="88.0171" y1="98.459" x2="142.1281" y2="70.0903">
				<stop  offset="0" style="stop-color:#FFFFFF;stop-opacity:0.7"/>
				<stop  offset="0.4555" style="stop-color:#FFFFFF;stop-opacity:0"/>
			</linearGradient>
			<polygon class="st4" points="103.2,122.8 141.5,109.8 141.5,50.9 103.2,51.1 			"/>
			<polygon class="st2" points="117.3,103.7 147.7,93 152.3,87.8 149,43.8 120.6,30.6 117.3,35.3 			"/>
			<linearGradient id="SVGID_3_" gradientUnits="userSpaceOnUse" x1="103.2145" y1="72.9919" x2="152.6008" y2="52.5019">
				<stop  offset="0.2251" style="stop-color:#48A6BC"/>
				<stop  offset="0.7906" style="stop-color:#002C2F"/>
			</linearGradient>
			<polygon class="st5" points="120.6,99 152.3,87.8 152.3,39.2 120.6,30.6 			"/>
			<linearGradient id="SVGID_4_" gradientUnits="userSpaceOnUse" x1="104.4947" y1="71.1277" x2="153.8794" y2="50.6384">
				<stop  offset="0" style="stop-color:#FFFFFF;stop-opacity:0.7"/>
				<stop  offset="0.4555" style="stop-color:#FFFFFF;stop-opacity:0"/>
			</linearGradient>
			<polygon class="st6" points="121.9,97.1 153.6,86 153.6,37.3 121.9,28.7 			"/>
			<polygon class="st2" points="131,81.7 158.1,75.2 161.2,71.2 158.1,36.1 134.1,22.6 131,27.5 			"/>
			<linearGradient id="SVGID_5_" gradientUnits="userSpaceOnUse" x1="118.2634" y1="58.7644" x2="175.5266" y2="35.649">
				<stop  offset="0.2251" style="stop-color:#48A6BC"/>
				<stop  offset="0.7906" style="stop-color:#002C2F"/>
			</linearGradient>
			<polygon class="st7" points="134.1,77.8 161.2,71.2 161.2,31.2 134.1,22.6 			"/>
			<linearGradient id="SVGID_6_" gradientUnits="userSpaceOnUse" x1="122.9376" y1="55.776" x2="167.5042" y2="37.7857">
				<stop  offset="0" style="stop-color:#FFFFFF;stop-opacity:0.7"/>
				<stop  offset="0.4555" style="stop-color:#FFFFFF;stop-opacity:0"/>
			</linearGradient>
			<polygon class="st8" points="135.3,76.2 162.4,69.6 162.4,29.6 135.3,21 			"/>
		</g>
		<g>
			<polygon class="st2" points="36,111.7 39.6,57.9 74.3,53 77.7,57.9 77.7,129.9 40.3,117.2 			"/>
			
				<linearGradient id="SVGID_7_" gradientUnits="userSpaceOnUse" x1="1524.1034" y1="100.305" x2="1578.2146" y2="71.9363" gradientTransform="matrix(-1 0 0 1 1613.5681 0)">
				<stop  offset="0.2251" style="stop-color:#48A6BC"/>
				<stop  offset="0.7906" style="stop-color:#002C2F"/>
			</linearGradient>
			<polygon class="st9" points="74.3,124.7 36,111.7 36,52.7 74.3,53 			"/>
			
				<linearGradient id="SVGID_8_" gradientUnits="userSpaceOnUse" x1="1525.4648" y1="98.459" x2="1579.5759" y2="70.0903" gradientTransform="matrix(-1 0 0 1 1613.5681 0)">
				<stop  offset="0" style="stop-color:#FFFFFF;stop-opacity:0.7"/>
				<stop  offset="0.4555" style="stop-color:#FFFFFF;stop-opacity:0"/>
			</linearGradient>
			<polygon class="st10" points="72.9,122.8 34.7,109.8 34.7,50.9 72.9,51.1 			"/>
			<polygon class="st2" points="58.8,103.7 28.5,93 23.8,87.8 27.1,43.8 55.5,30.6 58.8,35.3 			"/>
			
				<linearGradient id="SVGID_9_" gradientUnits="userSpaceOnUse" x1="1540.6606" y1="72.9919" x2="1590.0469" y2="52.5019" gradientTransform="matrix(-1 0 0 1 1613.5681 0)">
				<stop  offset="0.2251" style="stop-color:#48A6BC"/>
				<stop  offset="0.7906" style="stop-color:#002C2F"/>
			</linearGradient>
			<polygon class="st11" points="55.5,99 23.8,87.8 23.8,39.2 55.5,30.6 			"/>
			
				<linearGradient id="SVGID_10_" gradientUnits="userSpaceOnUse" x1="1541.9408" y1="71.1281" x2="1591.3269" y2="50.6381" gradientTransform="matrix(-1 0 0 1 1613.5681 0)">
				<stop  offset="0" style="stop-color:#FFFFFF;stop-opacity:0.7"/>
				<stop  offset="0.4555" style="stop-color:#FFFFFF;stop-opacity:0"/>
			</linearGradient>
			<polygon class="st12" points="54.3,97.1 22.5,86 22.5,37.3 54.3,28.7 			"/>
			<polygon class="st2" points="45.1,81.7 18,75.2 14.9,71.2 18,36.1 42,22.6 45.1,27.5 			"/>
			
				<linearGradient id="SVGID_11_" gradientUnits="userSpaceOnUse" x1="1555.7094" y1="58.7648" x2="1612.9746" y2="35.6485" gradientTransform="matrix(-1 0 0 1 1613.5681 0)">
				<stop  offset="0.2251" style="stop-color:#48A6BC"/>
				<stop  offset="0.7906" style="stop-color:#002C2F"/>
			</linearGradient>
			<polygon class="st13" points="42,77.8 14.9,71.2 14.9,31.2 42,22.6 			"/>
			
				<linearGradient id="SVGID_12_" gradientUnits="userSpaceOnUse" x1="1560.3837" y1="55.776" x2="1604.9503" y2="37.7857" gradientTransform="matrix(-1 0 0 1 1613.5681 0)">
				<stop  offset="0" style="stop-color:#FFFFFF;stop-opacity:0.7"/>
				<stop  offset="0.4555" style="stop-color:#FFFFFF;stop-opacity:0"/>
			</linearGradient>
			<polygon class="st14" points="40.8,76.2 13.7,69.6 13.7,29.6 40.8,21 			"/>
		</g>
	</g>
</g>
</svg>
