<svg width="512" height="512" viewBox="0 0 512 512" fill="none" xmlns="http://www.w3.org/2000/svg">
<g clip-path="url(#clip0_5_3635)">
<path d="M20.7 179.6C47 264.6 128.5 268.6 202.8 273.2C447.7 288.2 139.8 491.4 349.5 511.5C426.6 518.9 507.3 454.5 495.1 371.2C484 295.2 374 250.1 373.9 179.1C373.9 123.2 477.8 82.7002 410.2 22.5002C350 -30.9998 -32.7 6.7002 20.7 179.6Z" fill="#DC211D" fill-opacity="0.37"/>
<path opacity="0.1" d="M385.1 325.1H384.6V226.5C399.4 222.3 410.3 208.7 410.3 192.6C410.3 176.5 399.4 162.9 384.6 158.7V81.5C384.6 76 380.1 71.5 374.6 71.5H140.4C134.9 71.5 130.4 76 130.4 81.5V245.4C114.1 248.5 101.7 262.8 101.7 280C101.7 297.2 114 311.5 130.4 314.6V478.4C130.4 483.9 134.9 488.4 140.4 488.4H374.6C380.1 488.4 384.6 483.9 384.6 478.4V375.4H385.1C399 375.4 410.2 364.1 410.2 350.3C410.2 336.5 399 325.1 385.1 325.1Z" fill="#EC4643"/>
<path d="M374.6 464.5H140.4C134.9 464.5 130.4 460 130.4 454.5V314.7L152 227.5L130.4 164.3V57.5C130.4 52 134.9 47.5 140.4 47.5H374.6C380.1 47.5 384.6 52 384.6 57.5V454.4C384.6 460 380.1 464.5 374.6 464.5Z" fill="#DC211D"/>
<path d="M130.4 101.6H384.6V410.4H130.4V101.6Z" fill="white"/>
<path d="M264.9 82.6001H203.1C200.3 82.6001 198.1 80.4001 198.1 77.6001C198.1 74.8001 200.3 72.6001 203.1 72.6001H264.9C267.7 72.6001 269.9 74.8001 269.9 77.6001C269.9 80.4001 267.7 82.6001 264.9 82.6001Z" fill="#DC211D" fill-opacity="0.37"/>
<path d="M327.8 86.7998H319.3C316.5 86.7998 314.3 84.5998 314.3 81.7998V73.2998C314.3 70.4998 316.5 68.2998 319.3 68.2998H327.8C330.6 68.2998 332.8 70.4998 332.8 73.2998V81.7998C332.8 84.5998 330.6 86.7998 327.8 86.7998Z" fill="white"/>
<path d="M355.6 86.7998H347.1C344.3 86.7998 342.1 84.5998 342.1 81.7998V73.2998C342.1 70.4998 344.3 68.2998 347.1 68.2998H355.6C358.4 68.2998 360.6 70.4998 360.6 73.2998V81.7998C360.6 84.5998 358.4 86.7998 355.6 86.7998Z" fill="white"/>
<path d="M355.6 443.9H347.1C344.3 443.9 342.1 441.7 342.1 438.9V430.4C342.1 427.6 344.3 425.4 347.1 425.4H355.6C358.4 425.4 360.6 427.6 360.6 430.4V438.9C360.6 441.6 358.4 443.9 355.6 443.9Z" fill="white"/>
<path d="M308.8 446H169.3C162.9 446 157.8 440.9 157.8 434.5C157.8 428.1 163 423 169.3 423H308.8C315.2 423 320.3 428.1 320.3 434.5C320.3 440.9 315.2 446 308.8 446Z" fill="white"/>
<path d="M226 203.9H375C394.5 203.9 410.2 188.1 410.2 168.7C410.2 149.3 394.4 133.5 375 133.5H256.2C236.7 133.5 221 149.3 221 168.7V198.9C221 201.6 223.2 203.9 226 203.9Z" fill="white"/>
<path d="M297.2 164.3H370.7C373.5 164.3 375.7 162.1 375.7 159.3C375.7 156.5 373.5 154.3 370.7 154.3H297.2C294.4 154.3 292.2 156.5 292.2 159.3C292.2 162.1 294.4 164.3 297.2 164.3Z" fill="#DC211D"/>
<path d="M335.9 229.1H352.4C355.2 229.1 357.4 226.9 357.4 224.1C357.4 221.3 355.2 219.1 352.4 219.1H335.9C333.1 219.1 330.9 221.3 330.9 224.1C330.9 226.9 333.1 229.1 335.9 229.1Z" fill="#DC211D"/>
<path d="M255.2 182.9H370.7C373.5 182.9 375.7 180.7 375.7 177.9C375.7 175.1 373.5 172.9 370.7 172.9H255.2C252.4 172.9 250.2 175.1 250.2 177.9C250.2 180.7 252.4 182.9 255.2 182.9Z" fill="#DC211D"/>
<path d="M256 342.4H385.2C399.1 342.4 410.3 331.1 410.3 317.3C410.3 303.5 399 292.2 385.2 292.2H276.2C262.3 292.2 251.1 303.5 251.1 317.3V337.4C251 340.1 253.2 342.4 256 342.4Z" fill="white"/>
<path d="M335.9 367.6H352.4C355.2 367.6 357.4 365.4 357.4 362.6C357.4 359.8 355.2 357.6 352.4 357.6H335.9C333.1 357.6 330.9 359.8 330.9 362.6C330.9 365.4 333.1 367.6 335.9 367.6Z" fill="#DC211D"/>
<path d="M288.1 321.5H373.6C376.4 321.5 378.6 319.3 378.6 316.5C378.6 313.7 376.4 311.5 373.6 311.5H288.1C285.3 311.5 283.1 313.7 283.1 316.5C283.1 319.3 285.4 321.5 288.1 321.5Z" fill="#DC211D"/>
<path d="M226 291.3H137C117.5 291.3 101.8 275.5 101.8 256.1C101.8 236.7 117.6 220.9 137 220.9H195.8C215.3 220.9 231 236.7 231 256.1V286.3C231 289.1 228.8 291.3 226 291.3Z" fill="white"/>
<path d="M172.8 251.8H141.3C138.5 251.8 136.3 249.6 136.3 246.8C136.3 244 138.5 241.8 141.3 241.8H172.8C175.6 241.8 177.8 244 177.8 246.8C177.8 249.6 175.6 251.8 172.8 251.8Z" fill="#DC211D"/>
<path d="M176.1 316.5H159.6C156.8 316.5 154.6 314.3 154.6 311.5C154.6 308.7 156.8 306.5 159.6 306.5H176.1C178.9 306.5 181.1 308.7 181.1 311.5C181.1 314.3 178.9 316.5 176.1 316.5Z" fill="#DC211D"/>
<path d="M196.8 270.4H141.3C138.5 270.4 136.3 268.2 136.3 265.4C136.3 262.6 138.5 260.4 141.3 260.4H196.8C199.6 260.4 201.8 262.6 201.8 265.4C201.8 268.2 199.6 270.4 196.8 270.4Z" fill="#DC211D"/>
<path d="M182 85.4H179.2L179.6 88.1L180 90.6L180.2 92C180.4 93 179.6 93.9 178.6 93.9H172V101.7H152V76.3C152 67.6 159.1 60.5 167.8 60.5C176.5 60.5 183.6 67.6 183.6 76.3V83.7C183.6 84.6 182.9 85.4 182 85.4Z" fill="white"/>
<path d="M77.6 310.3C74.8 310.3 72.6 308.1 72.6 305.3C72.6 302 69.9 299.3 66.6 299.3C63.8 299.3 61.6 297.1 61.6 294.3C61.6 291.5 63.8 289.3 66.6 289.3C69.9 289.3 72.6 286.6 72.6 283.3C72.6 280.5 74.8 278.3 77.6 278.3C80.4 278.3 82.6 280.5 82.6 283.3C82.6 286.6 85.3 289.3 88.6 289.3C91.4 289.3 93.6 291.5 93.6 294.3C93.6 297.1 91.4 299.3 88.6 299.3C85.3 299.3 82.6 302 82.6 305.3C82.6 308.1 80.3 310.3 77.6 310.3Z" fill="#DC211D"/>
<path d="M60 350.9C57.2 350.9 55 348.7 55 345.9C55 342.6 52.3 339.9 49 339.9C46.2 339.9 44 337.7 44 334.9C44 332.1 46.2 329.9 49 329.9C52.3 329.9 55 327.2 55 323.9C55 321.1 57.2 318.9 60 318.9C62.8 318.9 65 321.1 65 323.9C65 327.2 67.7 329.9 71 329.9C73.8 329.9 76 332.1 76 334.9C76 337.7 73.8 339.9 71 339.9C67.7 339.9 65 342.6 65 345.9C65 348.6 62.8 350.9 60 350.9Z" fill="#DC211D"/>
<path d="M444.9 259.5C442.1 259.5 439.9 257.3 439.9 254.5C439.9 251.2 437.2 248.5 433.9 248.5C431.1 248.5 428.9 246.3 428.9 243.5C428.9 240.7 431.1 238.5 433.9 238.5C437.2 238.5 439.9 235.8 439.9 232.5C439.9 229.7 442.1 227.5 444.9 227.5C447.7 227.5 449.9 229.7 449.9 232.5C449.9 235.8 452.6 238.5 455.9 238.5C458.7 238.5 460.9 240.7 460.9 243.5C460.9 246.3 458.7 248.5 455.9 248.5C452.6 248.5 449.9 251.2 449.9 254.5C449.9 257.2 447.7 259.5 444.9 259.5Z" fill="#DC211D"/>
<path d="M427 407.8C425.7 407.8 424.4 407.3 423.5 406.3L412.5 395.3C410.5 393.3 410.5 390.2 412.5 388.2L423.5 377.2C425.5 375.2 428.6 375.2 430.6 377.2L441.6 388.2C443.6 390.2 443.6 393.3 441.6 395.3L430.6 406.3C429.6 407.3 428.3 407.8 427 407.8ZM423.1 391.8L427 395.7L430.9 391.8L427 387.9L423.1 391.8Z" fill="#DC211D"/>
<path d="M88.6 201.5C87.3 201.5 86 201 85.1 200L74.1 189C72.1 187 72.1 183.9 74.1 181.9L85.1 170.9C87.1 168.9 90.2 168.9 92.2 170.9L103.2 181.9C105.2 183.9 105.2 187 103.2 189L92.2 200C91.1 201 89.9 201.5 88.6 201.5ZM84.6 185.5L88.5 189.4L92.4 185.5L88.5 181.6L84.6 185.5Z" fill="#DC211D"/>
<path d="M306.8 390.5C306.8 393.3 304.5 395.6 301.7 395.6C298.9 395.6 296.6 393.3 296.6 390.5C296.6 387.7 298.9 385.4 301.7 385.4C304.5 385.4 306.8 387.7 306.8 390.5Z" fill="#DC211D"/>
<path d="M323.8 390.5C323.8 393.3 321.5 395.6 318.7 395.6C315.9 395.6 313.6 393.3 313.6 390.5C313.6 387.7 315.9 385.4 318.7 385.4C321.5 385.4 323.8 387.7 323.8 390.5Z" fill="#DC211D"/>
<path d="M340.9 390.5C340.9 393.3 338.6 395.6 335.8 395.6C333 395.6 330.7 393.3 330.7 390.5C330.7 387.7 333 385.4 335.8 385.4C338.6 385.4 340.9 387.7 340.9 390.5Z" fill="#DC211D"/>
<path d="M357.9 390.5C357.9 393.3 355.6 395.6 352.8 395.6C350 395.6 347.7 393.3 347.7 390.5C347.7 387.7 350 385.4 352.8 385.4C355.6 385.4 357.9 387.7 357.9 390.5Z" fill="#DC211D"/>
<path d="M137 296.3H226C231.5 296.3 236 291.8 236 286.3V256.1C236 233.9 218 215.9 195.8 215.9H137C114.8 215.9 96.8 233.9 96.8 256.1C96.8 274.3 108.9 289.7 125.5 294.6V454.4C125.5 462.7 132.2 469.4 140.5 469.4H374.7C383 469.4 389.7 462.7 389.7 454.4V347C404.2 344.8 415.4 332.3 415.4 317.2C415.4 302.1 404.2 289.6 389.7 287.4V206.1C404.7 200.2 415.4 185.7 415.4 168.6C415.4 151.6 404.7 137 389.7 131.1V57.5C389.7 49.2 383 42.5 374.7 42.5H140.4C132.1 42.5 125.4 49.2 125.4 57.5V185.4C125.4 188.2 127.6 190.4 130.4 190.4C133.2 190.4 135.4 188.2 135.4 185.4V57.5C135.4 54.7 137.6 52.5 140.4 52.5H374.6C377.4 52.5 379.6 54.7 379.6 57.5V128.6C378.1 128.4 376.6 128.3 375 128.3H256.2C234 128.3 216 146.3 216 168.5V198.7C216 204.2 220.5 208.7 226 208.7H375C376.5 208.7 378.1 208.6 379.6 208.4V291.9C379.6 294.7 381.8 296.9 384.6 296.9H385.1C396.2 296.9 405.2 305.9 405.2 317C405.2 328.1 396.2 337.1 385.1 337.1H384.6H256V317C256 305.9 265 296.9 276.1 296.9H350.9C353.7 296.9 355.9 294.7 355.9 291.9C355.9 289.1 353.7 286.9 350.9 286.9H276.1C259.5 286.9 246 300.4 246 317V337.1C246 342.6 250.5 347.1 256 347.1H379.6V454.2C379.6 457 377.4 459.2 374.6 459.2H140.4C137.6 459.2 135.4 457 135.4 454.2V296.3C135.9 296.3 136.4 296.3 137 296.3ZM226 198.9V168.7C226 152 239.6 138.5 256.2 138.5H375C391.7 138.5 405.2 152.1 405.2 168.7C405.2 185.3 391.6 198.9 375 198.9H226ZM106.7 256.1C106.7 239.4 120.3 225.9 136.9 225.9H195.7C212.4 225.9 225.9 239.5 225.9 256.1V286.3H137C120.3 286.3 106.7 272.8 106.7 256.1Z" fill="#DC211D"/>
</g>
<defs>
<clipPath id="clip0_5_3635">
<rect width="512" height="512" fill="white"/>
</clipPath>
</defs>
</svg>
