<svg width="512" height="512" viewBox="0 0 512 512" fill="none" xmlns="http://www.w3.org/2000/svg">
<path d="M97.1 38.2C-38.2 157.7 135.9 273.6 119.3 404.2C111.9 462.3 135.4 517.8 212 511.4C305.4 503.7 271.5 414.2 291.1 354.6C324.8 252.1 531.8 276 446 118.2C391.3 17.5 190.3 -44 97.1 38.2Z" fill="#C6807F"/>
<g opacity="0.1">
<path d="M392.8 193.3C392.1 193.3 391.4 193.3 390.7 193.4C373.2 135.8 319.6 93.8 256.3 93.8C246.6 93.8 237.1 94.8 228 96.7C220.6 78.7 203 66 182.3 66C155 66 132.9 88.1 132.9 115.4C132.9 128 137.6 139.4 145.4 148.2C126.9 172 115.8 201.9 115.8 234.4C115.8 263.5 135.6 309.6 160.3 355.9C144.1 364 132.9 380.7 132.9 400.1C132.9 427.4 155 449.5 182.3 449.5C192.6 449.5 202.2 446.3 210.1 440.9C221.3 458.7 231.7 474.4 239.7 486.3C247.6 498.1 265 498.1 272.9 486.3C300.9 444.7 356.8 357.7 382.9 291.2C386.1 291.9 389.4 292.2 392.8 292.2C420.1 292.2 442.2 270.1 442.2 242.8C442.2 215.5 420.1 193.3 392.8 193.3Z" fill="#B3514F"/>
</g>
<path d="M396.8 210.3C396.8 271.3 310.1 406.8 272.9 462.1C265 473.9 247.6 473.9 239.7 462.1C202.5 406.8 115.8 271.3 115.8 210.3C115.8 132.7 178.7 69.7998 256.3 69.7998C333.9 69.7998 396.8 132.7 396.8 210.3Z" fill="white"/>
<path d="M256.3 312.4C312.688 312.4 358.4 266.688 358.4 210.3C358.4 153.912 312.688 108.2 256.3 108.2C199.912 108.2 154.2 153.912 154.2 210.3C154.2 266.688 199.912 312.4 256.3 312.4Z" fill="#DC211D"/>
<path d="M232.5 296.5C231.9 299.4 232.9 305.3 232.9 309.6C222 307 211.7 302.7 202.4 296.9C199 287.9 200.7 278.9 200.4 268.4C199.9 253.6 191 252.9 180.1 246.3C171 240.8 162.7 235.1 156 228.7C154.9 222.7 154.3 216.6 154.3 210.3C154.3 189.9 160.3 170.9 170.6 155C172.4 157.3 175 158 179.4 158.2C182.1 155.4 185 154.8 188 156.2C188.4 157.2 188.9 158.2 189.3 159.2C189.1 161.4 189.7 163.3 191.1 164.9C194.3 165.4 197.3 165 200.3 163.7C204.8 162.8 209.7 159.8 214.2 159.7C232.8 159.1 220.9 172 215.3 180.2C208.9 189.6 206 203 194.1 207.3C185.4 210.5 174.8 206.1 174.4 219.8C174.1 230.6 186.6 242.1 196 245.3C207.6 249.3 222.4 243.4 233.7 250.2C242.1 255.3 239.8 272 237.8 281.9C236.7 286.9 233.5 291.4 232.5 296.5Z" fill="white"/>
<path d="M246.1 132.6C243.5 136.4 239.6 139.4 238.3 143.9C237 148.6 238.9 154.5 235.4 158C230.1 154.4 227.7 147.5 228 141.1C228.1 137.3 228.7 132.7 225.6 130.4C222.9 128.4 218 129 217 125.7C216.6 124.3 217.2 122.8 216.7 121.4C216.2 119.9 214.5 119.2 213.3 118.1C213.2 118 213.1 117.9 213 117.8C224.3 112.5 236.8 109.2 249.9 108.4C250.4 116.7 250.7 125.7 246.1 132.6Z" fill="white"/>
<path d="M358.4 210.3C358.4 251.6 333.9 287.1 298.6 303.2C299.9 299.3 302.5 295.6 304.4 291.9C307.8 285.3 309.3 278 310.2 270.7C310.7 266.8 310.5 262 307.1 260C305.3 259 303.2 259 301.1 259C297.5 258.9 293.9 258.5 290.4 257.7C286.6 256.8 282.7 255.4 280.3 252.3C276.7 247.8 277.4 241.3 278.3 235.5C279.2 229.6 280.1 223.7 281.1 217.8C281.9 213 283.2 207.3 287.8 205.5C290.9 204.3 294.4 205.4 297.8 205.7C307.7 206.4 316.8 199.4 326.7 200C328.4 200.1 330.2 200.4 331.9 200C333.1 199.7 334.2 199 335.1 198.1C340.3 193.2 340.1 185 338.6 178.1C337.9 175.1 337 171.9 334.9 169.6C332.8 167.3 329.1 166.2 326.5 167.8C322.2 170.4 322.6 178 317.9 179.6C313.7 181 309.4 176.1 305.1 177.4C299.2 179.2 301.4 189.5 296.2 192.8C293.5 194.5 289.9 193.4 287.1 192C283.6 190.2 280.1 187.3 279.6 183.4C279 178.1 283.9 174 288.5 171.4C293.1 168.8 298.4 165.8 299.4 160.6C299.8 158.9 299.6 157.1 299.9 155.4C301 150.4 306.2 147.6 311.1 146C316 144.4 321.4 143.2 324.6 139.3C325.4 138.4 326 137.3 326.6 136.2C346.1 154.7 358.4 181 358.4 210.3Z" fill="white"/>
<path d="M256.3 317.4C197.3 317.4 149.2 269.4 149.2 210.3C149.2 151.2 197.2 103.2 256.3 103.2C315.4 103.2 363.4 151.2 363.4 210.3C363.4 269.4 315.4 317.4 256.3 317.4ZM256.3 113.2C202.8 113.2 159.2 156.8 159.2 210.3C159.2 263.8 202.8 307.4 256.3 307.4C309.8 307.4 353.4 263.8 353.4 210.3C353.4 156.8 309.8 113.2 256.3 113.2Z" fill="#DC211D"/>
<path d="M392.8 268C420.083 268 442.2 245.883 442.2 218.6C442.2 191.317 420.083 169.2 392.8 169.2C365.517 169.2 343.4 191.317 343.4 218.6C343.4 245.883 365.517 268 392.8 268Z" fill="white"/>
<path d="M409.9 212.7C409.9 203.3 402.2 195.6 392.8 195.6C383.4 195.6 375.7 203.3 375.7 212.7C375.7 217.3 377.6 221.6 380.6 224.6C377.6 227.7 375.7 231.9 375.7 236.5C375.7 239.3 378 241.6 380.8 241.6C383.6 241.6 385.9 239.3 385.9 236.5C385.9 232.8 389 229.7 392.7 229.7C396.4 229.7 399.5 232.8 399.5 236.5C399.5 239.3 401.8 241.6 404.6 241.6C407.4 241.6 409.7 239.3 409.7 236.5C409.7 231.9 407.8 227.6 404.8 224.6C408 221.5 409.9 217.3 409.9 212.7ZM392.8 205.9C396.5 205.9 399.6 209 399.6 212.7C399.6 216.4 396.5 219.5 392.8 219.5C389.1 219.5 386 216.4 386 212.7C386 209 389.1 205.9 392.8 205.9Z" fill="#DC211D"/>
<path d="M182.3 424.5C209.583 424.5 231.7 402.383 231.7 375.1C231.7 347.817 209.583 325.7 182.3 325.7C155.017 325.7 132.9 347.817 132.9 375.1C132.9 402.383 155.017 424.5 182.3 424.5Z" fill="white"/>
<path d="M199.4 369.1C199.4 359.7 191.7 352 182.3 352C172.9 352 165.2 359.7 165.2 369.1C165.2 373.7 167.1 378 170.1 381C167.1 384.1 165.2 388.3 165.2 392.9C165.2 395.7 167.5 398 170.3 398C173.1 398 175.4 395.7 175.4 392.9C175.4 389.2 178.5 386.1 182.2 386.1C185.9 386.1 189 389.2 189 392.9C189 395.7 191.3 398 194.1 398C196.9 398 199.2 395.7 199.2 392.9C199.2 388.3 197.3 384 194.3 381C197.5 378 199.4 373.8 199.4 369.1ZM182.3 362.3C186 362.3 189.1 365.3 189.1 369.1C189.1 372.8 186 375.9 182.3 375.9C178.6 375.9 175.5 372.8 175.5 369.1C175.5 365.4 178.6 362.3 182.3 362.3Z" fill="#DC211D"/>
<path d="M182.3 139.8C209.583 139.8 231.7 117.683 231.7 90.4C231.7 63.1171 209.583 41 182.3 41C155.017 41 132.9 63.1171 132.9 90.4C132.9 117.683 155.017 139.8 182.3 139.8Z" fill="white"/>
<path d="M199.4 84.4999C199.4 75.0999 191.7 67.3999 182.3 67.3999C172.9 67.3999 165.2 75.0999 165.2 84.4999C165.2 89.0999 167.1 93.3999 170.1 96.3999C167.1 99.4999 165.2 103.7 165.2 108.3C165.2 111.1 167.5 113.4 170.3 113.4C173.1 113.4 175.4 111.1 175.4 108.3C175.4 104.6 178.5 101.5 182.2 101.5C185.9 101.5 189 104.6 189 108.3C189 111.1 191.3 113.4 194.1 113.4C196.9 113.4 199.2 111.1 199.2 108.3C199.2 103.7 197.3 99.3999 194.3 96.3999C197.5 93.2999 199.4 89.0999 199.4 84.4999ZM182.3 77.6999C186 77.6999 189.1 80.7999 189.1 84.4999C189.1 88.1999 186 91.2999 182.3 91.2999C178.6 91.2999 175.5 88.1999 175.5 84.4999C175.5 80.7999 178.6 77.6999 182.3 77.6999Z" fill="#DC211D"/>
<path d="M90.7 141.1C87.9 141.1 85.7 138.9 85.7 136.1C85.7 132.8 83 130.1 79.7 130.1C76.9 130.1 74.7 127.9 74.7 125.1C74.7 122.3 76.9 120.1 79.7 120.1C83 120.1 85.7 117.4 85.7 114.1C85.7 111.3 87.9 109.1 90.7 109.1C93.5 109.1 95.7 111.3 95.7 114.1C95.7 117.4 98.4 120.1 101.7 120.1C104.5 120.1 106.7 122.3 106.7 125.1C106.7 127.9 104.5 130.1 101.7 130.1C98.4 130.1 95.7 132.8 95.7 136.1C95.7 138.8 93.4 141.1 90.7 141.1Z" fill="#DC211D"/>
<path d="M370.1 430.3C367.3 430.3 365.1 428.1 365.1 425.3C365.1 422 362.4 419.3 359.1 419.3C356.3 419.3 354.1 417.1 354.1 414.3C354.1 411.5 356.3 409.3 359.1 409.3C362.4 409.3 365.1 406.6 365.1 403.3C365.1 400.5 367.3 398.3 370.1 398.3C372.9 398.3 375.1 400.5 375.1 403.3C375.1 406.6 377.8 409.3 381.1 409.3C383.9 409.3 386.1 411.5 386.1 414.3C386.1 417.1 383.9 419.3 381.1 419.3C377.8 419.3 375.1 422 375.1 425.3C375.1 428.1 372.9 430.3 370.1 430.3Z" fill="#DC211D"/>
<path d="M67.3 206.3C64.5 206.3 62.3 204.1 62.3 201.3C62.3 198 59.6 195.3 56.3 195.3C53.5 195.3 51.3 193.1 51.3 190.3C51.3 187.5 53.5 185.3 56.3 185.3C59.6 185.3 62.3 182.6 62.3 179.3C62.3 176.5 64.5 174.3 67.3 174.3C70.1 174.3 72.3 176.5 72.3 179.3C72.3 182.6 75 185.3 78.3 185.3C81.1 185.3 83.3 187.5 83.3 190.3C83.3 193.1 81.1 195.3 78.3 195.3C75 195.3 72.3 198 72.3 201.3C72.3 204 70 206.3 67.3 206.3Z" fill="#DC211D"/>
<path d="M392.8 378.3C391.5 378.3 390.2 377.8 389.3 376.8L378.3 365.8C376.3 363.8 376.3 360.7 378.3 358.7L389.3 347.7C391.3 345.7 394.4 345.7 396.4 347.7L407.4 358.7C409.4 360.7 409.4 363.8 407.4 365.8L396.4 376.8C395.4 377.9 394.1 378.3 392.8 378.3ZM388.9 362.3L392.8 366.2L396.7 362.3L392.8 358.4L388.9 362.3Z" fill="#DC211D"/>
<path d="M367.9 85.8002C366.6 85.8002 365.3 85.3002 364.4 84.3002L353.4 73.3002C351.4 71.3002 351.4 68.2002 353.4 66.2002L364.4 55.2002C366.4 53.2002 369.5 53.2002 371.5 55.2002L382.5 66.2002C384.5 68.2002 384.5 71.3002 382.5 73.3002L371.5 84.3002C370.5 85.3002 369.2 85.8002 367.9 85.8002ZM364 69.8002L367.9 73.7002L371.8 69.8002L367.9 65.9002L364 69.8002Z" fill="#DC211D"/>
<path d="M235.6 464.9C240.3 471.8 248 476 256.4 476C264.8 476 272.5 471.9 277.2 464.9C306.8 420.9 359.8 338.1 386.2 272.6C388.4 272.9 390.7 273 392.9 273C422.9 273 447.3 248.6 447.3 218.6C447.3 189.2 423.8 165.1 394.5 164.3C385.6 137.7 369.4 114.3 347.3 96.6001C324.4 78.2001 296.8 67.3001 267.5 65.1001C264.7 64.9001 262.3 67.0001 262.1 69.7001C261.9 72.5001 264 74.9001 266.7 75.1001C293.9 77.2001 319.6 87.3001 341 104.4C360.9 120.3 375.7 141.2 384.1 164.9C358.3 169.1 338.5 191.6 338.5 218.5C338.5 242.7 354.4 263.2 376.2 270.2C364 300.1 334.7 361.1 268.8 459.1C266 463.3 261.4 465.7 256.3 465.7C251.2 465.7 246.7 463.3 243.8 459.1C239.9 453.3 236 447.4 232.2 441.6C230.7 439.3 227.6 438.6 225.3 440.2C223 441.8 222.3 444.8 223.9 447.1C227.7 453.1 231.7 459.1 235.6 464.9ZM348.5 218.6C348.5 194.1 368.4 174.2 392.9 174.2C417.4 174.2 437.3 194.1 437.3 218.6C437.3 243.1 417.4 263 392.9 263C368.4 263 348.5 243.1 348.5 218.6Z" fill="#DC211D"/>
<path d="M127.9 375.1C127.9 405.1 152.3 429.5 182.3 429.5C212.3 429.5 236.7 405.1 236.7 375.1C236.7 345.1 212.3 320.7 182.3 320.7C175.2 320.7 168.4 322.1 162.2 324.6C134.8 272.5 120.8 234 120.8 210.2C120.8 181.5 129.6 154.2 146.3 131.1C155.9 139.6 168.5 144.8 182.3 144.8C212.3 144.8 236.7 120.4 236.7 90.4C236.7 60.4 212.3 36 182.3 36C152.3 36 127.9 60.4 127.9 90.4C127.9 102.9 132.2 114.5 139.3 123.7C120.6 148.9 110.8 178.8 110.8 210.3C110.8 235.7 125.1 275.7 153.3 329.2C138.1 338.8 127.9 355.8 127.9 375.1ZM182.3 46.1C206.8 46.1 226.7 66 226.7 90.5C226.7 115 206.8 134.9 182.3 134.9C157.8 134.9 137.9 115 137.9 90.5C137.9 66 157.8 46.1 182.3 46.1ZM182.3 330.8C206.8 330.8 226.7 350.7 226.7 375.2C226.7 399.7 206.8 419.6 182.3 419.6C157.8 419.6 137.9 399.7 137.9 375.2C137.9 350.7 157.8 330.8 182.3 330.8Z" fill="#DC211D"/>
</svg>
